<?xml version="1.0" encoding="UTF-8"?> <svg xmlns="http://www.w3.org/2000/svg" xmlns:xlink="http://www.w3.org/1999/xlink" width="166" height="99" viewBox="0 0 166 99"><defs><linearGradient id="kvlt43u6qb" x1="50%" x2="50%" y1="97.148%" y2="24.919%"><stop offset="0%" stop-color="#4990E2"></stop><stop offset="100%" stop-color="#1C4270"></stop></linearGradient><path id="407vl7kuqa" d="M101.686.287l-75.03 11.556c-4.461.687-8.283 3.548-10.183 7.625L1.437 51.725c-2.943 6.313-.559 13.818 5.496 17.298l48.781 28.04c2.06 1.183 4.387 1.799 6.743 1.8h.016c.685 0 1.373-.052 2.057-.158l75.03-11.556c4.461-.687 8.283-3.548 10.183-7.625l15.037-32.256c2.943-6.313.558-13.818-5.496-17.298L110.502 1.93C108.439.744 106.109.13 103.75.13c-.688 0-1.378.052-2.065.158"></path></defs><g fill="none" fill-rule="evenodd"><mask id="ztd7f0s4mc" fill="#fff"><use xlink:href="#407vl7kuqa"></use></mask><path fill="url(#kvlt43u6qb)" d="M101.686.287l-75.03 11.556c-4.461.687-8.283 3.548-10.183 7.625L1.437 51.725c-2.943 6.313-.559 13.818 5.496 17.298l48.781 28.04c2.06 1.183 4.387 1.799 6.743 1.8h.016c.685 0 1.373-.052 2.057-.158l75.03-11.556c4.461-.687 8.283-3.548 10.183-7.625l15.037-32.256c2.943-6.313.558-13.818-5.496-17.298L110.502 1.93C108.439.744 106.109.13 103.75.13c-.688 0-1.378.052-2.065.158" mask="url(#ztd7f0s4mc)"></path></g></svg> 