<?xml version="1.0" encoding="utf-8"?>
<!-- Generator: Adobe Illustrator 25.0.0, SVG Export Plug-In . SVG Version: 6.00 Build 0)  -->
<svg version="1.1" id="Calque_1" xmlns="http://www.w3.org/2000/svg" xmlns:xlink="http://www.w3.org/1999/xlink" x="0px" y="0px"
	 viewBox="0 0 172 153" style="enable-background:new 0 0 172 153;" xml:space="preserve">
<style type="text/css">
	.st0{fill:url(#SVGID_1_);stroke:url(#SVGID_2_);}
	.st1{fill:#FFFFFF;stroke:#FFFFFF;stroke-width:0.25;stroke-miterlimit:10;}
	.st2{fill:#FFFFFF;}
	.st3{fill:none;stroke:#FFFFFF;stroke-width:2;stroke-miterlimit:10;}
	.st4{fill:url(#SVGID_3_);}
	.st5{fill:url(#SVGID_4_);}
	.st6{fill:url(#SVGID_5_);}
	.st7{fill:url(#SVGID_6_);}
</style>
<g>
	<path d="M43.6,0.2L1.9,72.5l41.7,72.3h83.5l41.8-72.3L127.1,0.2H43.6z"/>
</g>
<linearGradient id="SVGID_1_" gradientUnits="userSpaceOnUse" x1="1.9" y1="-1492.5" x2="168.9" y2="-1492.5" gradientTransform="matrix(1 0 0 -1 0 -1420)">
	<stop  offset="0" style="stop-color:#3B60BA"/>
	<stop  offset="1" style="stop-color:#002171"/>
</linearGradient>
<linearGradient id="SVGID_2_" gradientUnits="userSpaceOnUse" x1="43.3388" y1="154.316" x2="127.4045" y2="8.7092" gradientTransform="matrix(1 0 0 -1 0 154)">
	<stop  offset="0" style="stop-color:#055BB0"/>
	<stop  offset="1" style="stop-color:#54A3FF"/>
</linearGradient>
<path class="st0" d="M43.6,0.2L1.9,72.5l41.7,72.3h83.5l41.8-72.3L127.1,0.2H43.6z"/>
<g>
	<path class="st1" d="M249.7,65.8h3.2c1.1,0,1.9,0.3,2.4,0.8c0.5,0.5,0.7,1.3,0.7,2.3v0.5c0,0.7-0.1,1.3-0.3,1.7
		c-0.2,0.4-0.6,0.7-1,0.9v0c1,0.4,1.6,1.3,1.6,2.8V76c0,1-0.3,1.8-0.8,2.4c-0.5,0.5-1.3,0.8-2.4,0.8h-3.3V65.8z M252.6,71.3
		c0.4,0,0.7-0.1,0.9-0.3c0.2-0.2,0.3-0.6,0.3-1.1v-0.7c0-0.5-0.1-0.8-0.3-1.1c-0.2-0.2-0.4-0.3-0.8-0.3h-1v3.6H252.6z M253,77.3
		c0.4,0,0.6-0.1,0.8-0.3c0.2-0.2,0.3-0.5,0.3-1v-1.2c0-0.6-0.1-1-0.3-1.3c-0.2-0.2-0.6-0.4-1-0.4h-0.9v4.1H253z"/>
	<path class="st1" d="M257.5,65.8h5.8v1.9h-3.6v3.6h2.9v1.9h-2.9v4.1h3.6v1.9h-5.8V65.8z"/>
	<path class="st1" d="M266.1,67.7h-2.2v-1.9h6.5v1.9h-2.2v11.5h-2.1V67.7z"/>
	<path class="st1" d="M272.2,65.8h2.9l2.2,13.4h-2.1l-0.4-2.7v0h-2.4l-0.4,2.6h-2L272.2,65.8z M274.5,74.8l-0.9-6.6h0l-0.9,6.6
		H274.5z"/>
</g>
<g>
	<path class="st2" d="M207.5-27.2h3.4c1.4,0,2.5,0.3,3.2,0.9c0.8,0.6,1.2,1.5,1.2,2.7c0,1.6-0.7,2.6-2,3.2c1,0.2,1.9,0.5,2.4,1.2
		s0.8,1.4,0.8,2.5c0,1.2-0.4,2.2-1.2,2.9s-1.9,1-3.3,1h-4.5V-27.2z M210.5-21c1,0,1.8-0.2,2.3-0.6c0.5-0.4,0.8-1,0.8-1.8
		c0-0.8-0.3-1.4-0.8-1.8c-0.5-0.4-1.3-0.6-2.3-0.6h-1.2v4.9H210.5z M211.5-14.3c1,0,1.8-0.2,2.4-0.7c0.6-0.4,0.8-1.1,0.8-1.9
		c0-0.8-0.3-1.5-0.8-1.9s-1.4-0.7-2.4-0.7h-2.2v5.1H211.5z"/>
	<path class="st2" d="M220.7-13.2c-0.7-0.4-1.3-1-1.8-1.7c-0.4-0.7-0.6-1.5-0.6-2.4c0-0.7,0.1-1.3,0.4-1.9s0.6-1.1,1-1.5
		c0.4-0.4,0.9-0.8,1.5-1s1.2-0.4,1.8-0.4c0.9,0,1.7,0.2,2.4,0.6c0.7,0.4,1.2,0.9,1.6,1.6c0.4,0.7,0.6,1.5,0.6,2.4c0,0.1,0,0.2,0,0.4
		H220c0,0.6,0.1,1.2,0.4,1.6c0.3,0.5,0.7,0.8,1.2,1.1c0.5,0.3,1.1,0.4,1.7,0.4c1.2,0,2.2-0.5,2.9-1.5l1.2,0.6
		c-0.4,0.7-1,1.2-1.7,1.6c-0.7,0.4-1.6,0.6-2.5,0.6C222.3-12.6,221.5-12.8,220.7-13.2z M226-18.4c-0.1-0.7-0.5-1.2-1-1.7
		c-0.5-0.4-1.2-0.6-1.9-0.6c-0.8,0-1.5,0.2-2,0.6c-0.5,0.4-0.9,1-1,1.7H226z"/>
	<path class="st2" d="M231.2-13.3c-0.4-0.5-0.6-1.2-0.6-2v-5.1h-1v-1.3h1v-3.3h1.7v3.3h2.1v1.3h-2.1v5c0,0.9,0.3,1.4,1,1.4
		c0.3,0,0.6-0.1,0.9-0.3l0.4,1.3c-0.5,0.3-1,0.4-1.7,0.4C232.2-12.6,231.6-12.8,231.2-13.3z"/>
	<path class="st2" d="M238.7-13.2c-0.7-0.4-1.2-1-1.6-1.7c-0.4-0.7-0.6-1.5-0.6-2.4c0-0.9,0.2-1.7,0.6-2.4c0.4-0.7,0.9-1.3,1.6-1.7
		s1.4-0.6,2.3-0.6c0.8,0,1.4,0.2,2.1,0.5s1.1,0.8,1.4,1.4v-1.6h1.7v8.9h-1.7v-1.7c-0.4,0.6-0.9,1.1-1.5,1.4c-0.6,0.3-1.3,0.5-2,0.5
		C240.1-12.6,239.4-12.8,238.7-13.2z M243-14.5c0.5-0.3,0.8-0.7,1.1-1.2s0.4-1.1,0.4-1.7c0-0.6-0.1-1.2-0.4-1.7s-0.6-0.9-1.1-1.2
		c-0.5-0.3-1-0.4-1.6-0.4c-0.6,0-1.1,0.1-1.6,0.4c-0.5,0.3-0.8,0.7-1.1,1.2s-0.4,1.1-0.4,1.7c0,0.6,0.1,1.2,0.4,1.7s0.6,0.9,1.1,1.2
		s1,0.4,1.6,0.4C242-14.1,242.5-14.2,243-14.5z"/>
</g>
<polyline class="st3" points="242.7,-9.7 204.3,-9.7 204.3,-22.7 "/>
<polygon class="st2" points="136.4,18.4 83.4,18.4 83.5,1.4 126.2,1.4 "/>
<g>
	<linearGradient id="SVGID_3_" gradientUnits="userSpaceOnUse" x1="89.3165" y1="9.7446" x2="98.3487" y2="9.7446">
		<stop  offset="0" style="stop-color:#3B60BA"/>
		<stop  offset="1" style="stop-color:#002171"/>
	</linearGradient>
	<path class="st4" d="M89.3,2.6h3.4c1.4,0,2.5,0.3,3.2,0.9c0.8,0.6,1.2,1.5,1.2,2.7c0,1.6-0.7,2.6-2,3.2c1,0.2,1.9,0.5,2.4,1.2
		s0.8,1.4,0.8,2.5c0,1.2-0.4,2.2-1.2,2.9s-1.9,1-3.3,1h-4.5V2.6z M92.3,8.8c1,0,1.8-0.2,2.3-0.6c0.5-0.4,0.8-1,0.8-1.8
		c0-0.8-0.3-1.4-0.8-1.8C94.1,4.2,93.3,4,92.3,4h-1.2v4.9H92.3z M93.3,15.5c1,0,1.8-0.2,2.4-0.7c0.6-0.4,0.8-1.1,0.8-1.9
		c0-0.8-0.3-1.5-0.8-1.9s-1.4-0.7-2.4-0.7h-2.2v5.1H93.3z"/>
	<linearGradient id="SVGID_4_" gradientUnits="userSpaceOnUse" x1="100.1466" y1="12.4629" x2="109.5353" y2="12.4629">
		<stop  offset="0" style="stop-color:#3B60BA"/>
		<stop  offset="1" style="stop-color:#002171"/>
	</linearGradient>
	<path class="st5" d="M102.5,16.6c-0.7-0.4-1.3-1-1.8-1.7c-0.4-0.7-0.6-1.5-0.6-2.4c0-0.7,0.1-1.3,0.4-1.9s0.6-1.1,1-1.5
		c0.4-0.4,0.9-0.8,1.5-1s1.2-0.4,1.8-0.4c0.9,0,1.7,0.2,2.4,0.6c0.7,0.4,1.2,0.9,1.6,1.6c0.4,0.7,0.6,1.5,0.6,2.4c0,0.1,0,0.2,0,0.4
		h-7.6c0,0.6,0.1,1.2,0.4,1.6c0.3,0.5,0.7,0.8,1.2,1.1c0.5,0.3,1.1,0.4,1.7,0.4c1.2,0,2.2-0.5,2.9-1.5l1.2,0.6
		c-0.4,0.7-1,1.2-1.7,1.6c-0.7,0.4-1.6,0.6-2.5,0.6C104.1,17.2,103.3,17,102.5,16.6z M107.8,11.4c-0.1-0.7-0.5-1.2-1-1.7
		c-0.5-0.4-1.2-0.6-1.9-0.6c-0.8,0-1.5,0.2-2,0.6c-0.5,0.4-0.9,1-1,1.7H107.8z"/>
	<linearGradient id="SVGID_5_" gradientUnits="userSpaceOnUse" x1="111.419" y1="10.9387" x2="116.3956" y2="10.9387">
		<stop  offset="0" style="stop-color:#3B60BA"/>
		<stop  offset="1" style="stop-color:#002171"/>
	</linearGradient>
	<path class="st6" d="M113,16.5c-0.4-0.5-0.6-1.2-0.6-2V9.3h-1V8h1V4.7h1.7V8h2.1v1.3h-2.1v5c0,0.9,0.3,1.4,1,1.4
		c0.3,0,0.6-0.1,0.9-0.3l0.4,1.3c-0.5,0.3-1,0.4-1.7,0.4C114,17.2,113.4,16.9,113,16.5z"/>
	<linearGradient id="SVGID_6_" gradientUnits="userSpaceOnUse" x1="118.3409" y1="12.4629" x2="127.9552" y2="12.4629">
		<stop  offset="0" style="stop-color:#3B60BA"/>
		<stop  offset="1" style="stop-color:#002171"/>
	</linearGradient>
	<path class="st7" d="M120.5,16.6c-0.7-0.4-1.2-1-1.6-1.7c-0.4-0.7-0.6-1.5-0.6-2.4c0-0.9,0.2-1.7,0.6-2.4c0.4-0.7,0.9-1.3,1.6-1.7
		s1.4-0.6,2.3-0.6c0.8,0,1.4,0.2,2.1,0.5s1.1,0.8,1.4,1.4V8h1.7v8.9h-1.7v-1.7c-0.4,0.6-0.9,1.1-1.5,1.4c-0.6,0.3-1.3,0.5-2,0.5
		C121.9,17.2,121.2,17,120.5,16.6z M124.8,15.3c0.5-0.3,0.8-0.7,1.1-1.2s0.4-1.1,0.4-1.7c0-0.6-0.1-1.2-0.4-1.7s-0.6-0.9-1.1-1.2
		c-0.5-0.3-1-0.4-1.6-0.4c-0.6,0-1.1,0.1-1.6,0.4c-0.5,0.3-0.8,0.7-1.1,1.2s-0.4,1.1-0.4,1.7c0,0.6,0.1,1.2,0.4,1.7s0.6,0.9,1.1,1.2
		s1,0.4,1.6,0.4C123.8,15.7,124.4,15.6,124.8,15.3z"/>
</g>
</svg>
