<?xml version="1.0" encoding="utf-8"?>
<!-- Generator: Adobe Illustrator 25.0.0, SVG Export Plug-In . SVG Version: 6.00 Build 0)  -->
<svg version="1.1" id="Calque_1" xmlns="http://www.w3.org/2000/svg" xmlns:xlink="http://www.w3.org/1999/xlink" x="0px" y="0px"
	 viewBox="0 0 838 1085" style="enable-background:new 0 0 838 1085;" xml:space="preserve">
<style type="text/css">
	.st0{fill-rule:evenodd;clip-rule:evenodd;fill:#4762B2;fill-opacity:0;}
	.st1{fill-rule:evenodd;clip-rule:evenodd;fill:#FFFFFF;stroke:#D8D8D8;stroke-width:0.5;}
	.st2{fill-rule:evenodd;clip-rule:evenodd;fill:#24FF55;fill-opacity:0;}
	.st3{fill-rule:evenodd;clip-rule:evenodd;fill:#D8D8D8;fill-opacity:0;}
	.st4{fill-rule:evenodd;clip-rule:evenodd;fill:#FFFFFF;fill-opacity:0;}
	.st5{opacity:0;fill-rule:evenodd;clip-rule:evenodd;fill:#FFFFFF;stroke:#D8D8D8;stroke-width:0.5;}
	.st6{fill-rule:evenodd;clip-rule:evenodd;fill:#FFFFFF;}
</style>
<path class="st0" d="M578.9,392.7L537.1,465l41.8,72.3h83.5l41.7-72.3l-41.8-72.3H578.9z"/>
<path class="st1" d="M311.5,392.7L269.7,465l41.8,72.3H395l41.7-72.3L395,392.7H311.5z"/>
<path class="st1" d="M444.9,469.7L403.1,542l41.8,72.3h83.5l41.7-72.3l-41.8-72.3H444.9z"/>
<path class="st2" d="M577.2,549.2l-41.7,72.3l41.8,72.3h83.5l41.7-72.3l-41.8-72.3H577.2z"/>
<path class="st1" d="M309.8,549.2L268,621.5l41.8,72.3h83.5l41.7-72.3l-41.8-72.3H309.8z"/>
<path class="st1" d="M-232.9,743.3l-41.8,72.3l41.8,72.3h83.5l41.7-72.3l-41.8-72.3H-232.9z"/>
<path class="st1" d="M443.2,626.2l-41.7,72.3l41.8,72.3h83.5l41.7-72.3l-41.8-72.3H443.2z"/>
<path class="st1" d="M309.6,703.3l-41.7,72.3l41.8,72.3h83.5l41.7-72.3l-41.8-72.3H309.6z"/>
<path class="st3" d="M175.6,780.3l-41.7,72.3l41.8,72.3h83.5l41.7-72.3l-41.8-72.3H175.6z"/>
<path class="st1" d="M175.6,625.2l-41.7,72.3l41.8,72.3h83.5l41.7-72.3l-41.8-72.3H175.6z"/>
<path class="st1" d="M41.6,702.2l-41.7,72.3l41.8,72.3h83.5l41.7-72.3l-41.8-72.3H41.6z"/>
<path class="st1" d="M176.6,469.4l-41.7,72.3l41.8,72.3h83.5l41.7-72.3l-41.8-72.3L176.6,469.4z"/>
<path class="st1" d="M42.6,546.4L0.9,618.7L42.6,691h83.5l41.7-72.3l-41.7-72.3H42.6z"/>
<path class="st4" d="M712.9,469.7L671.1,542l41.8,72.3h83.5l41.7-72.3l-41.8-72.3H712.9z"/>
<path class="st0" d="M42.9,82.7L1.1,155l41.8,72.3h83.5l41.7-72.3l-41.8-72.3H42.9z"/>
<path class="st0" d="M175.9,3.7L134.1,76l41.8,72.3h83.5L301.1,76L259.4,3.7H175.9z"/>
<path class="st4" d="M444.9,780.7L403.1,853l41.8,72.3h83.5l41.7-72.3l-41.8-72.3H444.9z"/>
<path class="st5" d="M577.9,1012.7l-41.7,72.3l41.8,72.3h83.5l41.7-72.3l-41.8-72.3H577.9z"/>
<path class="st6" d="M710.9,1090.7l-41.7,72.3l41.8,72.3h83.5l41.7-72.3l-41.8-72.3H710.9z"/>
<path class="st3" d="M176.9,934.7l-41.7,72.3l41.8,72.3h83.5l41.7-72.3l-41.8-72.3L176.9,934.7z"/>
<path class="st3" d="M42.7,856.7L0.9,929l41.8,72.3h83.5l41.7-72.3L126,856.7H42.7z"/>
<path class="st0" d="M177.4,158.9l-41.7,72.3l41.8,72.3H261l41.7-72.3l-41.8-72.3H177.4z"/>
<path class="st1" d="M448.9,158.9l-41.7,72.3l41.8,72.3h83.5l41.7-72.3l-41.8-72.3H448.9z"/>
<path class="st1" d="M311.5,82.4l-41.7,72.3l41.8,72.3h83.5l41.7-72.3L395,82.4H311.5z"/>
<path class="st1" d="M177.4,312.6l-41.7,72.3l41.8,72.3H261l41.7-72.3l-41.8-72.3L177.4,312.6z"/>
<path class="st1" d="M443.5,313.7L401.8,386l41.8,72.3h83.5l41.7-72.3L527,313.7H443.5z"/>
<path class="st1" d="M311.5,236.2l-41.7,72.3l41.8,72.3h83.5l41.7-72.3L395,236.2H311.5z"/>
</svg>
