<svg xmlns="http://www.w3.org/2000/svg" viewBox="0 0 217.07 342.94"><defs><style>.cls-1,.cls-2{fill:#0e2d79;}.cls-1{opacity:0.6;}.cls-3{fill:none;}</style></defs><g id="Layer_2" data-name="Layer 2"><g id="Layer_1-2" data-name="Layer 1"><path class="cls-1" d="M193.82,169.07c-13.6,16.77-24.72,34.6-30.7,55.21-.88,3-2.72,2.7-4.86,2.7q-24.91,0-49.83,0h-.32V0C160.72.5,205.22,35.8,215,85.57,221.06,116.44,213.73,144.51,193.82,169.07Z"/><path class="cls-2" d="M108.11,0V227q-24.78,0-49.53,0c-2.12,0-4,.28-4.84-2.68C48,204.39,37.33,187.05,24,171.09,8.86,153,1.19,132,.1,108.72-2.59,51.6,47.22.48,106,0Z"/><path class="cls-1" d="M158.15,277v15.91c0,2.3,0,4.61,0,6.91-.06,7.78-1.49,9.42-9.35,10.46-6,20.41-18.93,33.08-40.69,32.63V277Z"/><path class="cls-2" d="M108.11,277v65.91l-1.22,0c-20.44-.88-32.37-13.59-38.41-32.67-7.7-.88-9.27-2.61-9.31-10.05,0-7.65,0-15.3,0-23.16Z"/><path class="cls-1" d="M159.1,243.9c-.47,5.38-.92,10.64-1.4,16.19H108.11V243.9Z"/><path class="cls-2" d="M108.11,243.9v16.19h-49c-.5-5.45-1-10.61-1.5-16.19Z"/><line class="cls-3" x1="108.11" y1="277.02" x2="108.11" y2="260.09"/><line class="cls-3" x1="108.11" y1="243.9" x2="108.11" y2="226.96"/></g></g></svg>