<svg xmlns="http://www.w3.org/2000/svg" viewBox="0 0 374.21 383.3"><defs><style>.cls-1{fill:#0e2d79;}.cls-2{opacity:0.6;}.cls-3{fill:none;}</style></defs><g id="Layer_2" data-name="Layer 2"><g id="Layer_1-2" data-name="Layer 1"><path class="cls-1" d="M336.8,266a33.57,33.57,0,0,1-33,34.11c-9.21.14-18.41.12-27.66.09q-8.47,0-17,0s0,0,0,0h-205s0,0,0-.06c-3.57,0-7,0-10.45.06h-4.8c-2.18,0-4.33,0-6.5-.09a33.65,33.65,0,0,1,1.39-67.28c6.29,0,12.58,0,18.89,0,6.81,0,13.63,0,20.5,0,0,0,0,0,0,0H277.93s0,0,0,.06c4.36,0,8.58,0,12.73-.06h6.52q3.58,0,7.14.09A33.61,33.61,0,0,1,336.8,266Z"/><g class="cls-2"><path class="cls-1" d="M259.12,300.19c-.38,1.2-.72,2.24-1,3.29C253,321.69,247.94,340,242.66,358.12c-5.4,18.57-23.48,28.94-41.28,23.92-18.5-5.22-28.57-23.27-23.43-42.19,3.33-12.26,6.82-24.47,10.22-36.71a25.41,25.41,0,0,0,.45-2.81h-64.3c-.33,1.07-.64,2-.91,3-5.17,18.34-10.21,36.72-15.54,55C102.48,376.8,84.26,387.1,66.46,382c-18.33-5.27-28.35-23.24-23.29-42,3.12-11.54,6.44-23,9.65-34.54.46-1.62.83-3.28,1.34-5.29Z"/><path class="cls-1" d="M300.86,151c-7.65,27.25-15.24,54.32-22.93,81.77H73.22C80.86,205.5,88.45,178.44,96.14,151h70l-22.89,81.67H208c7.62-27.18,15.23-54.3,22.9-81.67Z"/><path class="cls-1" d="M330.87,43.91c-2.57,9.5-5.31,19-7.95,28.43-.95,3.43-1.87,6.87-2.91,10.72H115.11c.38-1.23.71-2.28,1-3.33,5.17-18.34,10.29-36.69,15.53-55,3.25-11.37,10.67-18.92,21.71-23,2-.72,4-1.18,6-1.76h9.73a16.51,16.51,0,0,0,2,.78c19.27,4.6,30.35,22.84,25.29,42-3.27,12.38-6.87,24.68-10.3,37-.28,1-.41,2-.63,3.14h64.36c.33-1.06.64-2,.91-3,5.2-18.44,10.33-36.9,15.6-55.32,3.25-11.35,10.68-18.89,21.71-22.92,2-.71,4-1.17,6-1.75h9.73a6.22,6.22,0,0,0,1.28.66C325.76,5.68,336.39,23.49,330.87,43.91Z"/></g><path class="cls-1" d="M373.71,122.24c-2.93,16.58-16.37,28.05-33.27,28.19-13.08.11-26.17,0-39.43,0l-.15.55h-70l.12-.42H166.24l-.12.42h-70l.16-.58c-9.24,0-17.84.2-26.43,0-21.41-.6-36.81-21.35-31.37-42a33.47,33.47,0,0,1,32-25.19q7.2-.09,14.4-.08h7.7c7.48,0,15,0,22.52,0v0H320s0,0,0,.07c3.6,0,7.1,0,10.55-.07H336c2,0,4.07,0,6.1.11C362.12,83.86,377.18,102.58,373.71,122.24Z"/><line class="cls-3" x1="230.87" y1="151" x2="166.12" y2="151"/><line class="cls-3" x1="330.54" y1="83.06" x2="320.01" y2="83.06"/><line class="cls-3" x1="115.11" y1="83.06" x2="92.58" y2="83.06"/><line class="cls-3" x1="290.64" y1="232.77" x2="277.93" y2="232.77"/><line class="cls-3" x1="73.22" y1="232.77" x2="52.71" y2="232.77"/><polyline class="cls-3" points="288.48 300.19 276.12 300.19 259.12 300.19"/><line class="cls-3" x1="54.16" y1="300.19" x2="43.73" y2="300.19"/></g></g></svg>