<svg id="_02" data-name="02" xmlns="http://www.w3.org/2000/svg" xmlns:xlink="http://www.w3.org/1999/xlink" viewBox="0 0 3245.22 2300.5"><defs><style>.cls-1{fill:#113385;}.cls-2{fill:#3b60ba;}.cls-3{fill:#28326f;}.cls-4{fill:#f9d84e;}.cls-5{fill:#9b5627;}.cls-6{fill:#e9f0ff;}.cls-7{fill:#495587;}.cls-8{fill:#5a6499;}.cls-9{fill:#fff;}.cls-10{fill:#c5d8ff;}.cls-11{fill:#0c2a66;}.cls-12{clip-path:url(#clip-path);}.cls-13{clip-path:url(#clip-path-2);}.cls-14{clip-path:url(#clip-path-3);}.cls-15{clip-path:url(#clip-path-4);}.cls-16{fill:#000644;}.cls-17{fill:#5d679a;}.cls-18{clip-path:url(#clip-path-5);}.cls-19{opacity:0.46;}.cls-20{opacity:0.25;}.cls-21{clip-path:url(#clip-path-6);}.cls-22,.cls-53{opacity:0.7;}.cls-23{fill:#606ca0;}.cls-24{clip-path:url(#clip-path-7);}.cls-25{fill:#6d3916;}.cls-26{clip-path:url(#clip-path-8);}.cls-27{fill:#ba8b2d;}.cls-28{clip-path:url(#clip-path-9);}.cls-29{clip-path:url(#clip-path-10);}.cls-30{clip-path:url(#clip-path-11);}.cls-31{fill:#5d2f89;}.cls-32{clip-path:url(#clip-path-12);}.cls-33{fill:#5f699e;}.cls-34{clip-path:url(#clip-path-13);}.cls-35{fill:#d67a1e;}.cls-36{clip-path:url(#clip-path-14);}.cls-37{clip-path:url(#clip-path-15);}.cls-38{clip-path:url(#clip-path-16);}.cls-39{opacity:0.62;}.cls-40{opacity:0.18;}.cls-41{fill:#5880db;}.cls-42{clip-path:url(#clip-path-17);}.cls-43{fill:#c6c6c6;}.cls-44{clip-path:url(#clip-path-18);}.cls-45{opacity:0.5;}.cls-46{clip-path:url(#clip-path-19);}.cls-47{clip-path:url(#clip-path-20);}.cls-48{opacity:0.38;}.cls-49{fill:#839fcc;}.cls-50{clip-path:url(#clip-path-21);}.cls-51{clip-path:url(#clip-path-22);}.cls-52{fill:#d8e2fb;}.cls-53{fill:#6589d1;}</style><clipPath id="clip-path" transform="translate(-717.39 -359.5)"><path class="cls-1" d="M3141.81,2478.72s-29.9-173.46,56.82-427.66,367.85-466.54,367.85-466.54,38.88,317-86.73,586.16S3141.81,2478.72,3141.81,2478.72Z"/></clipPath><clipPath id="clip-path-2" transform="translate(-717.39 -359.5)"><path class="cls-2" d="M3257.73,2496.16s105.69-410.58,520.33-500C3672.37,2398.59,3257.73,2496.16,3257.73,2496.16Z"/></clipPath><clipPath id="clip-path-3" transform="translate(-717.39 -359.5)"><path class="cls-2" d="M1443.38,2478.72s29.91-173.46-56.82-427.66-367.84-466.54-367.84-466.54-38.88,317,86.72,586.16S1443.38,2478.72,1443.38,2478.72Z"/></clipPath><clipPath id="clip-path-4" transform="translate(-717.39 -359.5)"><path class="cls-1" d="M1327.47,2496.16s-105.69-410.58-520.33-500C912.83,2398.59,1327.47,2496.16,1327.47,2496.16Z"/></clipPath><clipPath id="clip-path-5" transform="translate(-717.39 -359.5)"><path class="cls-10" d="M1377.07,2442.91h793.19c42.06,0,79.65-34.1,83.95-76.17L2436.59,582.12c4.3-42.06-26.32-76.16-68.39-76.16H1575c-42.07,0-79.65,34.1-84,76.16L1308.69,2366.74C1304.39,2408.81,1335,2442.91,1377.07,2442.91Z"/></clipPath><clipPath id="clip-path-6" transform="translate(-717.39 -359.5)"><path class="cls-2" d="M2457.63,2436.68h793.19c42.06,0,79.65-34.1,83.95-76.17L3517.15,575.9c4.3-42.07-26.32-76.17-68.39-76.17H2655.58c-42.07,0-79.65,34.1-83.95,76.17L2389.25,2360.51C2385,2402.58,2415.57,2436.68,2457.63,2436.68Z"/></clipPath><clipPath id="clip-path-7" transform="translate(-717.39 -359.5)"><path d="M2199.89,1202.22s28-3.34,40.43-36.78-3.35-66.87-37.69-73.25c-9.73-34.65-63.53-35-87.85-9.73-23.4-18.24-90-19.45-129.78,32.52s-30.1,98.18-20.67,132.83,35.56,114.9,92.32,115.58C2127.78,1282.69,2199.89,1202.22,2199.89,1202.22Z"/></clipPath><clipPath id="clip-path-8" transform="translate(-717.39 -359.5)"><path class="cls-4" d="M1116.29,2268.19s-58.13,50.61-91,60.18-138.14-46.5-173-61.55-80,21.89-95.06,45.14,23.93,77.28,83.43,117.63,91.64,97.11,122.42,103.95,56.08-11.62,103.27-65,123.1-90.27,123.1-90.27Z"/></clipPath><clipPath id="clip-path-9" transform="translate(-717.39 -359.5)"><path class="cls-11" d="M2662.59,2234.68c2.73,0-2.66,33.36-2.66,33.36s-89,238.15-281.16,213.53c-199,2.73-541-.69-541-.69l-274.93-229.1s-236.63,62.23-381.62,151.14c-60.86-27.36-111.47-115.58-111.47-115.58s354.71-314.6,476.9-300.92,369.31,253.5,420.37,254.41c132.22-44.68,525.24-21.88,525.24-21.88Z"/></clipPath><clipPath id="clip-path-10" transform="translate(-717.39 -359.5)"><path class="cls-4" d="M1975.72,2415.46c0,1.36-73.4,24.62-150.45,39.21s-99.4,5.47-100.31,33.28,10,76.6,52.43,107.6,72,39.66,98.94,19.6,86.17-66.56,106.69-68.39,40.58-14.13,40.58-14.13Z"/></clipPath><clipPath id="clip-path-11" transform="translate(-717.39 -359.5)"><path class="cls-2" d="M1963,2418s187.39-95.74,257.83-147.72,198.33-102.58,281.08-121.73,145.67,6.84,160.72,54.71-11.63,119-100.54,167.55-530.7,172.35-528.65,172.35S1960.22,2521.23,1963,2418Z"/></clipPath><clipPath id="clip-path-12" transform="translate(-717.39 -359.5)"><path class="cls-3" d="M2420.18,1759.35q-38.8,0-78.65-2.66c-93.79-6.25-191.57-23.65-290.62-51.72l26.53-93.64c206.11,58.41,365.73,55.75,463.35,43.24,55.19-7.07,97.33-18,125.06-26.87a48.57,48.57,0,0,1,58.33,24.76l.05.12a48.58,48.58,0,0,1-28.71,67.81c-31.82,10.18-77.69,22-136.38,29.93A1043.32,1043.32,0,0,1,2420.18,1759.35Z"/></clipPath><clipPath id="clip-path-13" transform="translate(-717.39 -359.5)"><path class="cls-4" d="M2068.28,1462.1,2050,1468s-136.78,35.1-182.37,67-123.1,182.37-173.26,257.15c-.91,104.86,83.9,182.37,83.9,182.37l131.3-174.17s28.73,101.22,38.3,198.33-4.78,226.37,8.21,236.63,69.76,97.12,140.88,84.81S2318.59,2206,2377.4,2195.7s49.93-21.89,39.67-72.5-1.37-309.12-1.37-309.12l26,32.14s121.73-41.71,138.15-134c-135.42-188.76-181.92-257.83-210.65-266.72s-248.25,10.94-248.25,10.94Z"/></clipPath><clipPath id="clip-path-14" transform="translate(-717.39 -359.5)"><path class="cls-5" d="M2574.67,1729s79.08,106.33,95.5,151.94-30.08,77.61-104.05,162.4c-77,88.34-251,226-251,226s-47.4-13.62-70.9-86.21c119.65-130.45,250.3-283.48,250.3-283.48L2450.35,1842s19.45.92,73.25-42.85C2564.62,1765.81,2574.67,1729,2574.67,1729Z"/></clipPath><clipPath id="clip-path-15" transform="translate(-717.39 -359.5)"><path class="cls-6" d="M3269,1632.62c-11.21-87.54-111.38-77.74-136-78.42-23.81-.66-76.69-2.28-159.52-2.39h-8.53c-82.83.11-135.71,1.73-159.52,2.39-24.62.68-124.79-9.12-136,78.42s9.75,340.12,59.47,534.35,102.37,260.57,132.35,279c29.33,18.07,114.63,17.15,118.32,17.1,2.82.05,68.3,1,97.63-17.1,30-18.46,82.62-84.8,132.34-279S3280.17,1720.16,3269,1632.62Z"/></clipPath><clipPath id="clip-path-16" transform="translate(-717.39 -359.5)"><path class="cls-7" d="M2830.6,1634h218.16a0,0,0,0,1,0,0V1758.8a109.08,109.08,0,0,1-109.08,109.08h0A109.08,109.08,0,0,1,2830.6,1758.8V1634a0,0,0,0,1,0,0Z"/></clipPath><clipPath id="clip-path-17" transform="translate(-717.39 -359.5)"><path class="cls-3" d="M3232.43,1687.39l-1.44-45a26.22,26.22,0,0,1,22.88-26.85,481.74,481.74,0,0,0,90.6-20.69c79.85-26.71,139.7-70.39,177.87-129.83,48.41-75.37,52.09-166.45,46.66-229.58-6.06-70.36-24-121.16-24.18-121.66l91.64-32.77c.91,2.55,22.38,63.31,29.5,146.08,4.23,49.09,2.6,96.15-4.85,139.87-9.54,56-28.68,106.74-56.88,150.66s-65.66,81.81-111.17,112.41c-35.69,24-76.35,43.56-120.87,58.16a577.35,577.35,0,0,1-110.49,24.45A26.21,26.21,0,0,1,3232.43,1687.39Z"/></clipPath><clipPath id="clip-path-18" transform="translate(-717.39 -359.5)"><rect class="cls-8" x="3531.5" y="1072.1" width="122.7" height="58.97" rx="13.13" transform="translate(-160.05 907.24) rotate(-14.08)"/></clipPath><clipPath id="clip-path-19" transform="translate(-717.39 -359.5)"><path class="cls-5" d="M2034.84,1331.25s12.92,105.32,15.66,143.62c46.5,11.62,91-.69,103.95-16.42-6.15-30.77-10.94-55.39-10.94-55.39Z"/></clipPath><clipPath id="clip-path-20" transform="translate(-717.39 -359.5)"><path class="cls-5" d="M2206.27,1197.05s4.56,65,7.3,110.94,14.29,113.08-52.28,111-106.08-35.87-120.06-77.81c-22.8-.31-38.6-14.59-37.69-41s21.58-44.68,41.94-32.22c0-29.78-10-61.4,19.46-68.08S2158.25,1214.07,2206.27,1197.05Z"/></clipPath><clipPath id="clip-path-21" transform="translate(-717.39 -359.5)"><path class="cls-5" d="M2284.9,2185.13l-39.7-.33s-104.59,42-119.12,71-55,113.61-43.84,129.12,22.05-5.73,29.07-27.56,30.6-63.13,30.6-63.13-10,35.78-12.13,56.88-1.47,66.62,6.13,71.43,17.58,1.84,19.17-27.47,2.8-42.8,8.47-53.19,12.74-27.88,12.74-27.88-5.81,35.63-7,45.53,8.61,55.6,15.59,59.35,15.78-4,12.93-20.78-4.86-34.67-3.22-39.17,16-38.41,16-38.41-.81,27.08,0,34.88,11.7,44.61,17,42.38c11.59-4.85,8-21.67,3.37-40.28-1.74-7.27,14.92-29.75,21.21-42.28s33.1-18.15,57.23-33.68c35.08-22.57,35.09-42.23,35.09-42.23l-32.82-48.16A65.51,65.51,0,0,0,2284.9,2185.13Z"/></clipPath><clipPath id="clip-path-22" transform="translate(-717.39 -359.5)"><path class="cls-9" d="M2974.67,1097.35c99.26-5.28,191.5,65.66,233.44,192.41s12.77,195.14-88.45,223.4S2874.37,1546,2785,1511.34s-88.46-85.94-68.39-161.63S2803.24,1106.47,2974.67,1097.35Z"/></clipPath></defs><path class="cls-1" d="M3141.81,2478.72s-29.9-173.46,56.82-427.66,367.85-466.54,367.85-466.54,38.88,317-86.73,586.16S3141.81,2478.72,3141.81,2478.72Z" transform="translate(-717.39 -359.5)"/><g class="cls-12"><path class="cls-9" d="M3506.67,1704.15s-251.21,329-364.86,774.57Z" transform="translate(-717.39 -359.5)"/><path d="M3335.88,1977.94q-25.11,47.63-48.28,96.26l-11.38,24.4c-3.74,8.16-7.36,16.37-11,24.55l-5.49,12.29-5.32,12.37-5.32,12.36c-1.76,4.13-3.59,8.23-5.26,12.39l-10.25,24.9-2.56,6.22c-.85,2.08-1.65,4.18-2.47,6.26l-4.92,12.54-4.92,12.53-2.45,6.26-2.34,6.31-9.32,25.26-2.32,6.32-2.22,6.36-4.43,12.71-4.43,12.71-2.22,6.35-2.09,6.4-8.39,25.58-2.1,6.39-2,6.43-3.94,12.87-3.9,12.88c-1.29,4.3-2.64,8.57-3.82,12.9l-7.28,25.91c-1.19,4.33-2.48,8.62-3.59,13l-3.36,13-6.67,26.07c9.55-34.58,19.16-69.14,30.34-103.22l4.07-12.82,2-6.41,2.15-6.36,8.62-25.48,2.15-6.37,2.27-6.32,4.55-12.66,4.54-12.65,2.28-6.33,2.37-6.28c6.38-16.76,12.64-33.55,19.34-50.18l4.95-12.5c.83-2.08,1.63-4.17,2.49-6.24l2.58-6.21,10.3-24.83c1.69-4.16,3.53-8.24,5.3-12.36l5.35-12.33,5.35-12.33,5.52-12.26c3.71-8.16,7.35-16.35,11.11-24.48l11.43-24.34q23-48.59,47.92-96.27c16.68-31.73,34.08-63.08,51.93-94.17s36.46-61.76,55.72-92,39.08-60.16,60.19-89.16c-43.22,57.3-81.85,118-118.33,179.75C3370.08,1914.81,3352.73,1946.24,3335.88,1977.94Z" transform="translate(-717.39 -359.5)"/></g><path class="cls-2" d="M3257.73,2496.16s105.69-410.58,520.33-500C3672.37,2398.59,3257.73,2496.16,3257.73,2496.16Z" transform="translate(-717.39 -359.5)"/><g class="cls-13"><path d="M3627.74,2101.26c-5.49,3.49-11,6.92-16.4,10.55l-8.13,5.39-8,5.54c-5.39,3.64-10.6,7.52-15.87,11.33l-3.95,2.87-3.88,2.94-7.78,5.89c-2.61,1.94-5.17,3.95-7.72,6l-7.66,6-3.82,3-3.76,3.11-7.51,6.23c-5,4.11-9.92,8.4-14.85,12.64l-7.39,6.38-7.26,6.51c-9.75,8.61-19.1,17.65-28.56,26.57-9.26,9.13-18.61,18.17-27.62,27.54s-17.88,18.88-26.75,28.38c-4.4,4.79-8.67,9.68-13,14.52s-8.7,9.65-12.85,14.65l-12.6,14.87c-1,1.24-2.11,2.47-3.14,3.73l-3.08,3.77-6.15,7.56-6.15,7.56c-2,2.53-4.13,5-6.09,7.6l-11.91,15.41a1416.72,1416.72,0,0,0-88.08,128.33c30.1-42.23,61.11-83.72,93.69-123.89l12.28-15c4.08-5,8.3-9.91,12.45-14.86l6.24-7.42,3.12-3.71c1-1.23,2.13-2.43,3.19-3.65l12.77-14.57c4.23-4.89,8.58-9.67,12.91-14.46s8.62-9.63,13-14.35c8.86-9.4,17.61-18.9,26.71-28.06,8.9-9.37,18.14-18.39,27.29-27.5l14-13.39c4.63-4.5,9.45-8.79,14.16-13.21l7.1-6.58,7.22-6.45c4.83-4.29,9.6-8.64,14.54-12.79q14.65-12.66,29.68-24.88t30.58-23.78l7.76-5.8,7.86-5.66c5.22-3.82,10.59-7.41,15.88-11.11q16-10.93,32.58-21c5.53-3.35,11.11-6.63,16.77-9.76s11.35-6.23,17.23-9a337.27,337.27,0,0,0-35.25,16.53C3650,2087.88,3638.83,2094.49,3627.74,2101.26Z" transform="translate(-717.39 -359.5)"/></g><path class="cls-2" d="M1443.38,2478.72s29.91-173.46-56.82-427.66-367.84-466.54-367.84-466.54-38.88,317,86.72,586.16S1443.38,2478.72,1443.38,2478.72Z" transform="translate(-717.39 -359.5)"/><g class="cls-14"><path d="M1412.23,2361.64l-1.92-6.45-2-6.42-8.16-25.68-2-6.42-2.17-6.37-4.37-12.75-4.37-12.75-2.19-6.37-2.29-6.33-9.19-25.34-2.32-6.32-2.43-6.29-4.86-12.57L1359,2209c-.82-2.09-1.6-4.2-2.45-6.28l-2.53-6.24-10.15-25c-1.66-4.18-3.47-8.29-5.23-12.42l-5.32-12.38-5.33-12.39-5.49-12.3c-3.69-8.2-7.31-16.42-11-24.59L1300.08,2073c-15.51-32.42-31.56-64.58-48.41-96.32L1238.82,1953c-2.12-4-4.33-7.87-6.52-11.79l-6.57-11.77c-4.34-7.86-8.86-15.62-13.34-23.41s-9.08-15.5-13.66-23.22c-2.31-3.86-4.57-7.74-6.91-11.57l-7-11.51c-4.64-7.69-9.41-15.3-14.2-22.9q-14.34-22.8-29.27-45.23c-20-29.78-40.56-59.3-62.82-87.46,20.63,29.36,40.09,59.48,59.06,89.89,4.7,7.63,9.45,15.22,14.1,22.88s9.31,15.31,13.83,23,9.16,15.4,13.64,23.16l6.75,11.61c2.26,3.87,4.44,7.78,6.66,11.67,4.42,7.79,8.87,15.56,13.16,23.42s8.77,15.62,13,23.52l6.41,11.8c2.13,3.94,4.29,7.86,6.36,11.83l12.52,23.76q24.79,47.67,47.79,96.21c15.47,32.3,29.94,65,44.08,97.95l10.41,24.76,2.6,6.19c.87,2.07,1.68,4.15,2.52,6.23l5,12.46c6.77,16.58,13.11,33.33,19.57,50,12.53,33.55,24.74,67.25,35.79,101.34,11.48,34,21.5,68.39,31.62,102.82-8.15-34.94-17-69.75-27.33-104.16Z" transform="translate(-717.39 -359.5)"/></g><path class="cls-1" d="M1327.47,2496.16s-105.69-410.58-520.33-500C912.83,2398.59,1327.47,2496.16,1327.47,2496.16Z" transform="translate(-717.39 -359.5)"/><g class="cls-15"><path d="M1227.48,2352.42c-2-2.59-4.06-5.07-6.1-7.6l-6.15-7.56-6.15-7.56-3.07-3.77c-1-1.26-2.1-2.49-3.14-3.73l-12.61-14.87c-4.14-5-8.53-9.8-12.85-14.65s-8.61-9.73-13-14.52c-8.86-9.5-17.61-19.12-26.74-28.38s-18.36-18.41-27.62-27.54c-9.46-8.92-18.81-18-28.57-26.57l-7.26-6.51-7.38-6.38c-4.93-4.24-9.81-8.53-14.86-12.64l-7.51-6.23-3.75-3.11-3.82-3-7.67-6c-2.55-2-5.1-4-7.71-6l-7.78-5.89-3.89-2.94-3.94-2.87c-5.27-3.81-10.48-7.69-15.88-11.33l-8-5.54-8.12-5.39c-5.39-3.63-10.92-7.06-16.4-10.55-11.1-6.77-22.3-13.38-33.78-19.47a336.16,336.16,0,0,0-35.24-16.53c5.87,2.74,11.58,5.81,17.22,9s11.25,6.41,16.78,9.76Q939,2094.05,955,2105c5.3,3.7,10.67,7.29,15.88,11.11l7.86,5.66,7.76,5.8q15.51,11.61,30.58,23.78t29.69,24.88c4.94,4.15,9.71,8.5,14.54,12.79l7.22,6.45,7.1,6.58c4.7,4.42,9.53,8.71,14.16,13.21l14,13.39c9.15,9.11,18.38,18.13,27.28,27.5,9.1,9.16,17.86,18.66,26.72,28.06,4.4,4.72,8.67,9.57,13,14.35s8.67,9.57,12.9,14.46l12.78,14.57c1.06,1.22,2.14,2.42,3.18,3.65l3.13,3.71,6.24,7.42c4.14,5,8.36,9.85,12.45,14.86l12.27,15c32.59,40.17,63.59,81.66,93.7,123.89a1418.76,1418.76,0,0,0-88.08-128.33Z" transform="translate(-717.39 -359.5)"/></g><path class="cls-16" d="M2439.76,466.23H1628.62c-61.08,0-115.66,49.51-121.9,110.59L1323.29,2371.73c-6.24,61.08,38.21,110.59,99.29,110.59h811.15c61.08,0,115.65-49.51,121.89-110.59L2539.05,576.82C2545.3,515.74,2500.84,466.23,2439.76,466.23Z" transform="translate(-717.39 -359.5)"/><path class="cls-17" d="M2381.24,466.23H1570.1c-61.08,0-115.65,49.51-121.9,110.59L1264.77,2371.73c-6.24,61.08,38.22,110.59,99.29,110.59h811.15c61.08,0,115.65-49.51,121.9-110.59L2480.54,576.82C2486.78,515.74,2442.32,466.23,2381.24,466.23Z" transform="translate(-717.39 -359.5)"/><path class="cls-10" d="M1377.07,2442.91h793.19c42.06,0,79.65-34.1,83.95-76.17L2436.59,582.12c4.3-42.06-26.32-76.16-68.39-76.16H1575c-42.07,0-79.65,34.1-84,76.16L1308.69,2366.74C1304.39,2408.81,1335,2442.91,1377.07,2442.91Z" transform="translate(-717.39 -359.5)"/><g class="cls-18"><g class="cls-19"><rect class="cls-9" x="761.77" y="76.37" width="993.93" height="193.32"/></g><g class="cls-20"><path class="cls-9" d="M1225.72,2394.78l60.18,202.44L1937,397.8l-125.84-38.3C1816.6,375.91,1225.72,2394.78,1225.72,2394.78Z" transform="translate(-717.39 -359.5)"/></g><g class="cls-20"><path class="cls-9" d="M1444.56,2394.78l238,202.44L2333.63,397.8,2030,359.5C2035.45,375.91,1444.56,2394.78,1444.56,2394.78Z" transform="translate(-717.39 -359.5)"/></g></g><path class="cls-16" d="M3520.32,460H2709.18c-61.08,0-115.66,49.51-121.9,110.59L2403.85,2365.5c-6.24,61.08,38.21,110.59,99.29,110.59h811.15c61.08,0,115.65-49.51,121.89-110.59L3619.61,570.59C3625.86,509.51,3581.4,460,3520.32,460Z" transform="translate(-717.39 -359.5)"/><path class="cls-17" d="M3461.8,460H2650.66c-61.08,0-115.65,49.51-121.9,110.59L2345.33,2365.5c-6.24,61.08,38.22,110.59,99.3,110.59h811.14c61.08,0,115.65-49.51,121.9-110.59L3561.1,570.59C3567.34,509.51,3522.88,460,3461.8,460Z" transform="translate(-717.39 -359.5)"/><path class="cls-2" d="M2457.63,2436.68h793.19c42.06,0,79.65-34.1,83.95-76.17L3517.15,575.9c4.3-42.07-26.32-76.17-68.39-76.17H2655.58c-42.07,0-79.65,34.1-83.95,76.17L2389.25,2360.51C2385,2402.58,2415.57,2436.68,2457.63,2436.68Z" transform="translate(-717.39 -359.5)"/><g class="cls-21"><g class="cls-19"><rect class="cls-9" x="1852.27" y="70.52" width="993.93" height="193.32"/></g><path class="cls-1" d="M3293.13,694.69h-681.7a19,19,0,0,0-18.95,17.13L2576.71,867a19,19,0,0,0,18.95,21h681.7a19.06,19.06,0,0,0,19-17.12l15.77-155.21A19.06,19.06,0,0,0,3293.13,694.69Z" transform="translate(-717.39 -359.5)"/><g class="cls-22"><path class="cls-10" d="M3433.56,951.84h-681.7a19.06,19.06,0,0,0-19,17.12l-15.77,155.21a19.06,19.06,0,0,0,19,21h681.7a19,19,0,0,0,18.95-17.13l15.77-155.2A19,19,0,0,0,3433.56,951.84Z" transform="translate(-717.39 -359.5)"/></g><circle class="cls-1" cx="2695.89" cy="432.38" r="62.92"/><path class="cls-1" d="M3234.77,1218.1h-681.7a19,19,0,0,0-19,17.13l-15.77,155.2a19.06,19.06,0,0,0,19,21H3219a19.06,19.06,0,0,0,19-17.13l15.77-155.21A19.05,19.05,0,0,0,3234.77,1218.1Z" transform="translate(-717.39 -359.5)"/><circle class="cls-1" cx="2637.53" cy="955.79" r="62.92"/><g class="cls-22"><circle class="cls-10" cx="1917.16" cy="687.7" r="62.92"/></g><path class="cls-10" d="M3366.12,1479.84h-681.7a19.06,19.06,0,0,0-19,17.13l-15.77,155.21a19.06,19.06,0,0,0,19,21h681.7a19,19,0,0,0,19-17.13l15.77-155.2A19.05,19.05,0,0,0,3366.12,1479.84Z" transform="translate(-717.39 -359.5)"/><g class="cls-22"><circle class="cls-10" cx="2567.11" cy="1575.21" r="62.92" transform="translate(-1063.71 452) rotate(-16.85)"/></g></g><path class="cls-23" d="M3633,2473.81H894.71a13.68,13.68,0,0,0,0,27.36H3633a13.68,13.68,0,0,0,0-27.36Z" transform="translate(-717.39 -359.5)"/><path d="M2199.89,1202.22s28-3.34,40.43-36.78-3.35-66.87-37.69-73.25c-9.73-34.65-63.53-35-87.85-9.73-23.4-18.24-90-19.45-129.78,32.52s-30.1,98.18-20.67,132.83,35.56,114.9,92.32,115.58C2127.78,1282.69,2199.89,1202.22,2199.89,1202.22Z" transform="translate(-717.39 -359.5)"/><g class="cls-24"><path d="M2079.68,1174.41c-44.68-5-58.36,21.43-65,70.67s-58.13,45.13-58.13,45.13l74.54,70.67,19.61-1.59,126.06-119.68s81.84-35.34,83-93.24C2251.11,1181.47,2124.36,1179.42,2079.68,1174.41Z" transform="translate(-717.39 -359.5)"/></g><path class="cls-5" d="M1548.87,1282.86c-18.39-7.83-8.85,18.63-.56,37.27s10.5,47.08,10.5,47.08-15.62-28.32-23.27-42.87-24.14-44.69-35.52-47.71-18.19,6.82-9.77,21.69,13.86,29.94,21.34,41.87,7.56,47.65,7.56,47.65-18-32.31-23.11-41.76-28.4-45.83-41.33-47c-8.72-.77-7.61,20.61,2.14,33.14s19.69,24.87,26.05,42.51l6.36,17.64s-12.75-14.13-21-22.24c-7-6.83-26.68-17.92-32.48-9.65s10,16.27,21.11,32.48,23.66,25.92,27.29,53.14-12.12,77.51,45.89,115.87c35.32-12.82,75.69-13,75.69-13s-6.25-117.48-8.77-156.43S1567.27,1290.7,1548.87,1282.86Z" transform="translate(-717.39 -359.5)"/><path class="cls-25" d="M1624.08,1487.75s-11.87-51.41-19.84-73.23-39.17-43.72-62.29-57.9-30.14,14.83-7.6,38.42,24.43,40.89,20.53,52.74-43.12,78.77,22.59,120.12c35-20.31,50.2-52.69,50.2-52.69C1626.3,1514.76,1624.08,1487.75,1624.08,1487.75Z" transform="translate(-717.39 -359.5)"/><path class="cls-25" d="M1694.64,1795.39l-68.16-281.54s-53.34-16.19-98.94,27.58c12.77,166.87,34.2,336,53.35,419s55.17,137.7,99.85,110.8,101.67-114,101.67-114l-52-158.21Z" transform="translate(-717.39 -359.5)"/><path class="cls-4" d="M1116.29,2268.19s-58.13,50.61-91,60.18-138.14-46.5-173-61.55-80,21.89-95.06,45.14,23.93,77.28,83.43,117.63,91.64,97.11,122.42,103.95,56.08-11.62,103.27-65,123.1-90.27,123.1-90.27Z" transform="translate(-717.39 -359.5)"/><g class="cls-26"><path class="cls-27" d="M930.27,2474.73c-37.61-47.88-58.13-60.19-107.37-95.07s-64.29-95.74-64.29-95.74L719,2329.74s173,205.85,196.28,220.9,78-3.42,82.06-3.42,45.14-37.61,45.14-37.61S967.89,2522.6,930.27,2474.73Z" transform="translate(-717.39 -359.5)"/><path class="cls-5" d="M1018.49,2304.44c.69,2-12.31,88.9,97.8,142.25,96.43-32.83,99.85-71.13,99.85-71.13L1086.2,2242.2Z" transform="translate(-717.39 -359.5)"/><path class="cls-9" d="M908.39,2276.4l-4,1.09c0,.17,4,17.71-30.06,44.93a4.12,4.12,0,0,0,5.15,6.44c39-31.17,33.11-52.74,32.84-53.64Z" transform="translate(-717.39 -359.5)"/><path class="cls-9" d="M943.88,2294.47a4.11,4.11,0,0,0-4,4.18c0,1.17.06,28.74-28.52,47.23a4.13,4.13,0,0,0,4.49,6.93c32.55-21.07,32.3-53,32.27-54.31A4.13,4.13,0,0,0,943.88,2294.47Z" transform="translate(-717.39 -359.5)"/><path class="cls-9" d="M978.13,2310.88a4.14,4.14,0,0,0-4,4.28c0,.27.69,27.3-25,54.13a4.12,4.12,0,1,0,6,5.7c28.24-29.5,27.33-58.93,27.28-60.17A4.14,4.14,0,0,0,978.13,2310.88Z" transform="translate(-717.39 -359.5)"/><circle class="cls-9" cx="994.33" cy="2433.46" r="29.86" transform="translate(-2146.88 1056.34) rotate(-45)"/></g><path class="cls-11" d="M2662.59,2234.68c2.73,0-2.66,33.36-2.66,33.36s-89,238.15-281.16,213.53c-199,2.73-541-.69-541-.69l-274.93-229.1s-236.63,62.23-381.62,151.14c-60.86-27.36-111.47-115.58-111.47-115.58s354.71-314.6,476.9-300.92,369.31,253.5,420.37,254.41c132.22-44.68,525.24-21.88,525.24-21.88Z" transform="translate(-717.39 -359.5)"/><g class="cls-28"><path class="cls-9" d="M2636.39,2130.63c.1.2,10.82,20.67,8.71,55-3.55,57.65-39.86,109.43-69.7,142.71-25.44,28.37-57.39,51.77-95,69.53-35.46,16.76-77.19,29.11-124,36.7-83.69,13.56-186.28,12.82-313.62-2.25-198.59-23.5-334.23-144.64-399.41-202.86-10.39-9.27-18.59-16.6-25.25-21.95-21.31-17.11-41.92-22.29-68.9-17.34-26.12,4.8-57.71,18.51-105.53,39.27-15.59,6.77-33.26,14.44-52.7,22.63-133.39,56.2-259.71,126-261,126.71l4,7.22c1.26-.7,127.18-70.3,260.17-126.33,19.48-8.21,37.17-15.89,52.79-22.66,47.29-20.53,78.54-34.09,103.73-38.72,24.71-4.54,42.74,0,62.25,15.66,6.48,5.2,15,12.83,24.91,21.67,65.82,58.78,202.76,181.09,403.94,204.89,67.3,8,127.75,11.95,182.23,11.95,49.23,0,93.59-3.25,133.68-9.75,47.61-7.71,90.08-20.29,126.23-37.38,38.58-18.24,71.42-42.29,97.59-71.48,24.63-27.47,43.24-55.37,55.33-82.93,9.73-22.17,15.28-44.19,16.5-65.43,2.09-36.48-9.24-57.9-9.72-58.79Z" transform="translate(-717.39 -359.5)"/></g><path class="cls-27" d="M1732.86,2471.08s-20.21,10.18-42.7,37.54c-6.08,45.89,17.63,84.8,35.56,103.65s49.55,47.11,85.41,47.72,52.28-20.37,71.13-36.48,35-26.14,38-34.65a135,135,0,0,0,4.87-19.45l-185.42-94.23Z" transform="translate(-717.39 -359.5)"/><path class="cls-4" d="M1975.72,2415.46c0,1.36-73.4,24.62-150.45,39.21s-99.4,5.47-100.31,33.28,10,76.6,52.43,107.6,72,39.66,98.94,19.6,86.17-66.56,106.69-68.39,40.58-14.13,40.58-14.13Z" transform="translate(-717.39 -359.5)"/><g class="cls-29"><path class="cls-9" d="M1819.93,2461.31a4.12,4.12,0,0,0-3,7.68,71.7,71.7,0,0,1,25.76,20c15.68,19.15,20.43,44.13,14.11,74.25a4.13,4.13,0,1,0,8.08,1.7c8.58-40.94-4-66.92-16.08-81.5C1835.67,2467.58,1820.57,2461.56,1819.93,2461.31Z" transform="translate(-717.39 -359.5)"/><path class="cls-9" d="M1857.25,2454.76a4.12,4.12,0,0,0-2,8,55,55,0,0,1,24.29,15.46c14.77,16.13,19.07,39.52,12.79,69.51a4.12,4.12,0,1,0,8.07,1.69c4.75-22.66,6-54.43-15.09-77.11A62.23,62.23,0,0,0,1857.25,2454.76Z" transform="translate(-717.39 -359.5)"/><path class="cls-9" d="M1895.12,2448.38a4.13,4.13,0,0,0-2,8,46.62,46.62,0,0,1,21.59,14.92c12.93,15.63,16.48,39.54,10.27,69.15a4.13,4.13,0,0,0,3.2,4.88,4.11,4.11,0,0,0,4.88-3.19c4.74-22.61,6.44-54.23-12.34-76.51C1909.25,2452.06,1895.69,2448.53,1895.12,2448.38Z" transform="translate(-717.39 -359.5)"/></g><path class="cls-2" d="M1963,2418s187.39-95.74,257.83-147.72,198.33-102.58,281.08-121.73,145.67,6.84,160.72,54.71-11.63,119-100.54,167.55-530.7,172.35-528.65,172.35S1960.22,2521.23,1963,2418Z" transform="translate(-717.39 -359.5)"/><g class="cls-30"><path class="cls-31" d="M1931.6,2496.26l-.1-.1Z" transform="translate(-717.39 -359.5)"/><path class="cls-11" d="M2595.34,2300.1c-65.66,73.87-305.48,124.93-469.61,177.82-158.79,51.16-192.13,20.4-194.13,18.34,2.81,3,70.23,74.67,75.58,74.67s387.55-80.25,387.55-80.25l301.82-217.93s-21.88-83.89-29.18-98.48S2661,2226.24,2595.34,2300.1Z" transform="translate(-717.39 -359.5)"/></g><path class="cls-3" d="M2420.18,1759.35q-38.8,0-78.65-2.66c-93.79-6.25-191.57-23.65-290.62-51.72l26.53-93.64c206.11,58.41,365.73,55.75,463.35,43.24,55.19-7.07,97.33-18,125.06-26.87a48.57,48.57,0,0,1,58.33,24.76l.05.12a48.58,48.58,0,0,1-28.71,67.81c-31.82,10.18-77.69,22-136.38,29.93A1043.32,1043.32,0,0,1,2420.18,1759.35Z" transform="translate(-717.39 -359.5)"/><g class="cls-32"><path class="cls-33" d="M2373.75,1711c210.64,6.38,493.32-110.34,493.32-110.34L2044.57,1660S2163.11,1704.66,2373.75,1711Z" transform="translate(-717.39 -359.5)"/><rect x="2039.91" y="1681.11" width="205.96" height="9.17" transform="translate(-650.04 3094.15) rotate(-78.61)"/><rect x="2145.17" y="1697.45" width="205.96" height="9.17" transform="translate(-415.3 3383.1) rotate(-83.49)"/><rect x="2251.38" y="1705.64" width="205.96" height="9.17" transform="translate(-171.73 3630.29) rotate(-87.57)"/><rect x="2456.18" y="1604.59" width="9.17" height="205.96" transform="translate(-873.21 -109.55) rotate(-5.64)"/><rect x="2561.46" y="1588.47" width="9.17" height="205.96" transform="translate(-1000.36 179.24) rotate(-11.36)"/><rect x="2665.07" y="1563.69" width="9.17" height="205.96" transform="translate(-1063.12 405.87) rotate(-15.34)"/><rect x="2766.97" y="1532.63" width="9.17" height="205.96" transform="translate(-1093.31 605.19) rotate(-18.51)"/></g><path class="cls-4" d="M2068.28,1462.1,2050,1468s-136.78,35.1-182.37,67-123.1,182.37-173.26,257.15c-.91,104.86,83.9,182.37,83.9,182.37l131.3-174.17s28.73,101.22,38.3,198.33-4.78,226.37,8.21,236.63,69.76,97.12,140.88,84.81S2318.59,2206,2377.4,2195.7s49.93-21.89,39.67-72.5-1.37-309.12-1.37-309.12l26,32.14s121.73-41.71,138.15-134c-135.42-188.76-181.92-257.83-210.65-266.72s-248.25,10.94-248.25,10.94Z" transform="translate(-717.39 -359.5)"/><g class="cls-34"><g class="cls-19"><path class="cls-35" d="M2410.91,1791.51s-8.2,112.16-21.88,183.29-110.11,147.72-194.23,168.92S2006,2136.2,2006,2164.24s38.3,22.57,100.54,22.57,26.67,70.44-37.62,69.07-133.36-67.71-133.36-65.66-64.28,73.87-36.93,88.91,65.66,61.55,122.42,63.6,8.21,32.83,149.77,8.89,213.38-60.18,213.38-60.18L2473.15,2128l-41.72-274.24Z" transform="translate(-717.39 -359.5)"/></g><path class="cls-9" d="M1907.49,1799.9s9.26,45.18,10.69,95c265.83,32.63,516-29.29,516-29.29s-10.7-58.56-20-96.63C2096.35,1826.25,1907.49,1799.9,1907.49,1799.9Z" transform="translate(-717.39 -359.5)"/><path class="cls-27" d="M1886.82,1637.18c-5.47.91-12.77,151.37-69.3,231.61s-90.28,85.72-90.28,85.72c22.8,58.36,70.22,53.8,74.32,47s110.11-193.09,110.11-193.09S1892.29,1636.27,1886.82,1637.18Z" transform="translate(-717.39 -359.5)"/><path class="cls-27" d="M2400,1730.64c-31.46-39-49.24-114.89-49.24-114.89l34,144.53,19.37,56.54,20.52,48.55,78-33.51S2431.43,1769.63,2400,1730.64Z" transform="translate(-717.39 -359.5)"/><path class="cls-9" d="M2177.7,1478.34c-14,16.28-36.53,26.16-67,29.35-27.79,2.92-53.2-4.23-75.53-21.24a113.17,113.17,0,0,1-25.72-27l-11.73,7.17c.39.65,9.88,16,28.66,30.45a118.31,118.31,0,0,0,72.64,25,126.12,126.12,0,0,0,13.11-.69c34.14-3.58,59.72-15,76.06-34.08,12.62-14.71,19.47-33.53,20.37-55.92l-13.74-.55C2194,1450.05,2188.26,1466,2177.7,1478.34Z" transform="translate(-717.39 -359.5)"/></g><path class="cls-5" d="M2574.67,1729s79.08,106.33,95.5,151.94-30.08,77.61-104.05,162.4c-77,88.34-251,226-251,226s-47.4-13.62-70.9-86.21c119.65-130.45,250.3-283.48,250.3-283.48L2450.35,1842s19.45.92,73.25-42.85C2564.62,1765.81,2574.67,1729,2574.67,1729Z" transform="translate(-717.39 -359.5)"/><g class="cls-36"><path class="cls-25" d="M2644.12,1803.14c.69,2.73,24.62,95.74-20.51,141.56s-275.39,303.43-275.39,303.43l354.72-308.21-23.71-89.37Z" transform="translate(-717.39 -359.5)"/></g><path class="cls-6" d="M3269,1632.62c-11.21-87.54-111.38-77.74-136-78.42-23.81-.66-76.69-2.28-159.52-2.39h-8.53c-82.83.11-135.71,1.73-159.52,2.39-24.62.68-124.79-9.12-136,78.42s9.75,340.12,59.47,534.35,102.37,260.57,132.35,279c29.33,18.07,114.63,17.15,118.32,17.1,2.82.05,68.3,1,97.63-17.1,30-18.46,82.62-84.8,132.34-279S3280.17,1720.16,3269,1632.62Z" transform="translate(-717.39 -359.5)"/><g class="cls-37"><path class="cls-7" d="M2113.21,1274.49h218.16a0,0,0,0,1,0,0V1399.3a109.08,109.08,0,0,1-109.08,109.08h0a109.08,109.08,0,0,1-109.08-109.08V1274.49a0,0,0,0,1,0,0Z"/><g class="cls-38"><path class="cls-9" d="M3007.27,1734.75H2870.49a14.82,14.82,0,0,0,0,29.63h136.78a14.82,14.82,0,1,0,0-29.63Z" transform="translate(-717.39 -359.5)"/><path class="cls-9" d="M3007.27,1778.06H2870.49a14.82,14.82,0,0,0,0,29.64h136.78a14.82,14.82,0,1,0,0-29.64Z" transform="translate(-717.39 -359.5)"/></g><path class="cls-9" d="M3064,1520.46l-390.28,6.38-37.39,106.69s42.86,44.68,180.55,66.57S3116,1696.45,3271,1639C3290.18,1548.73,3064,1520.46,3064,1520.46Z" transform="translate(-717.39 -359.5)"/><g class="cls-39"><path class="cls-9" d="M2950.51,1989.16c-224.32,0-235.26,303.65-235.26,303.65l114.89,192.86,322.8-9.58L3209,2299.65S3174.83,1989.16,2950.51,1989.16Z" transform="translate(-717.39 -359.5)"/></g><g class="cls-40"><path class="cls-41" d="M3210.85,1953.6c-23.71,138.6-196,619.15-511.56,314.59-1.82,142.25,163.22,223.41,163.22,223.41l297.27,3.64,138.61-706.69,17.32-50.15c-7.29,0-68.39-47.42-68.39-47.42S3234.55,1815,3210.85,1953.6Z" transform="translate(-717.39 -359.5)"/></g></g><path class="cls-3" d="M3232.43,1687.39l-1.44-45a26.22,26.22,0,0,1,22.88-26.85,481.74,481.74,0,0,0,90.6-20.69c79.85-26.71,139.7-70.39,177.87-129.83,48.41-75.37,52.09-166.45,46.66-229.58-6.06-70.36-24-121.16-24.18-121.66l91.64-32.77c.91,2.55,22.38,63.31,29.5,146.08,4.23,49.09,2.6,96.15-4.85,139.87-9.54,56-28.68,106.74-56.88,150.66s-65.66,81.81-111.17,112.41c-35.69,24-76.35,43.56-120.87,58.16a577.35,577.35,0,0,1-110.49,24.45A26.21,26.21,0,0,1,3232.43,1687.39Z" transform="translate(-717.39 -359.5)"/><g class="cls-42"><path class="cls-33" d="M3191.24,1669.09s268.09,13.68,387.09-191.49-8.21-465-8.21-465Z" transform="translate(-717.39 -359.5)"/><rect x="3286.35" y="1558.19" width="9.17" height="205.96" transform="translate(-952.94 227.57) rotate(-9.84)"/><rect x="3387.29" y="1530.16" width="9.17" height="205.96" transform="translate(-1080.35 1003.03) rotate(-21.59)"/><rect x="3479.09" y="1479.92" width="9.17" height="205.96" transform="translate(-977.46 2014.57) rotate(-36.37)"/><rect x="3553.1" y="1406.09" width="9.17" height="205.96" transform="translate(-483.33 3121.35) rotate(-53.66)"/><rect x="3601.77" y="1313.56" width="9.17" height="205.96" transform="translate(358.06 3990.79) rotate(-70.66)"/><rect x="3623.01" y="1211.09" width="9.17" height="205.96" transform="translate(1307.78 4464.33) rotate(-85.37)"/><rect x="3522.17" y="1204.75" width="205.96" height="9.17" transform="translate(-835.05 78.07) rotate(-6.8)"/><rect x="3501.39" y="1101.99" width="205.96" height="9.17" transform="translate(-882.53 664.43) rotate(-15.81)"/></g><path class="cls-43" d="M3463.89,915l-36,158.21s107.14,21.88,109,21.88l48.78-19.14-108-41Z" transform="translate(-717.39 -359.5)"/><path class="cls-43" d="M3633,984l-59.51,99.09,50.18-15.13c1.43-1.13,72.07-84.61,72.07-84.61l-126.18-102Z" transform="translate(-717.39 -359.5)"/><rect class="cls-8" x="3531.5" y="1072.1" width="122.7" height="58.97" rx="13.13" transform="translate(-877.45 547.74) rotate(-14.08)"/><g class="cls-44"><path class="cls-3" d="M3616.63,1039.91l-23.71,12.31s21.43,100.3,23.25,99.85,52-24.17,52-24.17l-10.49-88.45Z" transform="translate(-717.39 -359.5)"/></g><g class="cls-22"><path class="cls-10" d="M1828.43,884H1056.08c-21.9,0-41.49,17.76-43.74,39.66l-43.77,425.84c-2.25,21.91,13.68,39.67,35.59,39.67h772.35c21.91,0,41.49-17.76,43.74-39.67L1864,923.64C1866.27,901.74,1850.34,884,1828.43,884Z" transform="translate(-717.39 -359.5)"/></g><g class="cls-45"><path class="cls-9" d="M3954,1332.16c-5.87-8.5-13.68-15.35-22-21.17a145.3,145.3,0,0,0-13-8c-4.44-2.45-9-4.76-13.57-6.86-18.43-8.47-37.75-14.72-57.25-20,19.39,5.7,38.56,12.32,56.76,21.06,4.55,2.17,9,4.55,13.37,7a142.57,142.57,0,0,1,12.68,8.17c8.11,5.88,15.62,12.75,21.13,21a50,50,0,0,1,6.22,13.38,42.13,42.13,0,0,1,1.47,14.56,49.93,49.93,0,0,1-3.29,14.33,72.43,72.43,0,0,1-6.78,13.19,109.07,109.07,0,0,1-9,12q-4.91,5.65-10.32,10.87a246.21,246.21,0,0,1-23.06,19.3,472,472,0,0,1-50.93,32.34c-17.61,9.8-35.64,18.84-53.92,27.35-36.57,17-74,32.12-111.88,46.2-75.7,28.11-152.89,52.19-230.6,74.25s-156,42.06-234.7,60.56c-157.36,36.9-316,68.38-475.25,96q-119.46,20.65-239.4,38.46T2270.56,1839q-120.3,15.12-240.92,27.33t-241.51,21.3c-161.18,12-322.73,19.66-484.31,19.8-80.77,0-161.56-2.16-242.08-7.94-40.25-2.94-80.43-6.85-120.35-12.5-19.95-2.85-39.84-6.11-59.58-10.08s-39.33-8.58-58.57-14.31c-9.61-2.87-19.13-6-28.47-9.61a245.7,245.7,0,0,1-27.28-12.26,133.58,133.58,0,0,1-24.59-16.42c-7.36-6.4-13.71-14-17.2-22.9a41.59,41.59,0,0,1-2.81-13.84,45.34,45.34,0,0,1,2-14.12,60.55,60.55,0,0,1,2.49-6.82c1-2.21,2.07-4.41,3.29-6.53a98.77,98.77,0,0,1,8.27-12.24,168.88,168.88,0,0,1,20.7-21.52c3.74-3.33,7.61-6.52,11.55-9.63s8-6.11,12.06-9a527.91,527.91,0,0,1,51.28-31.94c17.65-9.78,35.72-18.83,54-27.44,36.54-17.26,74-32.65,111.7-47.17-38,13.72-75.71,28.54-112.63,45.15-18.44,8.34-36.69,17.15-54.56,26.69a531.61,531.61,0,0,0-52.13,31.39q-6.27,4.34-12.34,9c-4,3.09-8,6.27-11.9,9.61a170.17,170.17,0,0,0-21.57,21.87,101.4,101.4,0,0,0-8.86,12.76c-1.32,2.24-2.5,4.58-3.61,7a65,65,0,0,0-2.8,7.39,50.71,50.71,0,0,0-2.4,15.76,47.44,47.44,0,0,0,3,15.77,56.23,56.23,0,0,0,7.79,13.9,78.62,78.62,0,0,0,10.71,11.52,140,140,0,0,0,25.53,17.54,253.7,253.7,0,0,0,27.86,12.94c9.49,3.77,19.14,7.12,28.86,10.15,19.45,6.06,39.23,10.88,59.09,15.09s39.88,7.67,59.93,10.74c40.12,6.08,80.45,10.41,120.84,13.75s80.85,5.58,121.32,7.12,81,2.38,121.46,2.68,81,.07,121.46-.61,81-1.86,121.41-3.37q121.36-4.56,242.49-13.38,121.13-8.64,241.95-20.77t241.29-27.19q120.47-15.16,240.55-33.14t239.65-39.09q119.57-21.13,238.52-45.54,59.46-12.26,118.73-25.46t118.26-27.56q59-14.34,117.71-29.85t117-32.61q58.26-17.13,116-36.08c38.45-12.72,76.68-26.12,114.5-40.66s75.21-30.21,111.76-47.79c18.27-8.79,36.3-18.1,53.91-28.2a464,464,0,0,0,51-33.37,249,249,0,0,0,23.12-20q5.44-5.38,10.39-11.27a113,113,0,0,0,9-12.44,75.2,75.2,0,0,0,6.85-13.84,52.84,52.84,0,0,0,3.24-15.18,44.88,44.88,0,0,0-1.79-15.42A52,52,0,0,0,3954,1332.16Z" transform="translate(-717.39 -359.5)"/></g><g class="cls-39"><circle class="cls-9" cx="3105.18" cy="907.09" r="52.22"/></g><path class="cls-5" d="M2034.84,1331.25s12.92,105.32,15.66,143.62c46.5,11.62,91-.69,103.95-16.42-6.15-30.77-10.94-55.39-10.94-55.39Z" transform="translate(-717.39 -359.5)"/><g class="cls-46"><path class="cls-25" d="M2163.57,1403.74,2032.72,1318l-29.64,53.8s98.48,65.65,164.14,66.56C2160.38,1403.74,2163.57,1403.74,2163.57,1403.74Z" transform="translate(-717.39 -359.5)"/></g><path class="cls-5" d="M2206.27,1197.05s4.56,65,7.3,110.94,14.29,113.08-52.28,111-106.08-35.87-120.06-77.81c-22.8-.31-38.6-14.59-37.69-41s21.58-44.68,41.94-32.22c0-29.78-10-61.4,19.46-68.08S2158.25,1214.07,2206.27,1197.05Z" transform="translate(-717.39 -359.5)"/><g class="cls-47"><path d="M2110,1267.21c-5.62.47-9.68,6.4-9.08,13.24s5.63,12,11.24,11.54,9.68-6.4,9.08-13.24S2115.63,1266.74,2110,1267.21Z" transform="translate(-717.39 -359.5)"/><path d="M2181.33,1261.23c-5.61.47-9.68,6.4-9.08,13.24s5.64,12,11.25,11.54,9.67-6.4,9.07-13.25S2186.94,1260.76,2181.33,1261.23Z" transform="translate(-717.39 -359.5)"/><path d="M2123.23,1237.68c-5.21.06-22.15-.07-31.17,3.36s-15.53,8.25-14.43,10.52,8.32-.69,15.64-3,23.85-2.33,29.46-2.4,7.61-1.1,8.12-3.1C2132,1238.4,2128.44,1237.61,2123.23,1237.68Z" transform="translate(-717.39 -359.5)"/><path d="M2191.39,1232.52c-6.85-2-18.22.68-21.75,1.39s-5.76,2-3.9,6.44c.79,1.87,2.38,2.57,6.17,1.8s14.94-3.19,20.38-2.07,11,2.91,11.2.53S2198.24,1234.52,2191.39,1232.52Z" transform="translate(-717.39 -359.5)"/><path d="M2154.13,1362.25a104.65,104.65,0,0,1-15.48-1.45c-5.23-.86-10.45-2-16-3.49a30.15,30.15,0,0,0,6.52,5.67,44,44,0,0,0,7.69,4,48,48,0,0,0,17.12,3.49,46.7,46.7,0,0,0,17.27-3,39.3,39.3,0,0,0,14.43-9.39c-5.65,1.18-10.88,2.37-16.09,3.12A98.37,98.37,0,0,1,2154.13,1362.25Z" transform="translate(-717.39 -359.5)"/><path class="cls-25" d="M2159.31,1272l4.26,66.71s22.95-13.37,21-23.25S2159.31,1272,2159.31,1272Z" transform="translate(-717.39 -359.5)"/></g><g class="cls-39"><circle class="cls-9" cx="1223.35" cy="767.03" r="52.22" transform="translate(-860.89 -57.92) rotate(-13.28)"/></g><g class="cls-48"><circle class="cls-9" cx="628.9" cy="474.85" r="21.06"/></g><g class="cls-48"><circle class="cls-9" cx="133.96" cy="1101.28" r="38.8"/></g><g class="cls-39"><circle class="cls-9" cx="3662.22" cy="1717.42" r="52.22" transform="translate(-441.44 3570.29) rotate(-58.28)"/></g><g class="cls-48"><circle class="cls-9" cx="3747.78" cy="1832.17" r="21.06" transform="matrix(0.99, -0.14, 0.14, 0.99, -935.29, 178.03)"/></g><path class="cls-49" d="M3707.16,860.49h-13.6a4.32,4.32,0,0,1-4.32-4.33V842.81a4.33,4.33,0,0,0-4.33-4.33h-13.6a4.33,4.33,0,0,0-4.33,4.33v13.35a4.32,4.32,0,0,1-4.32,4.33h-13.6a4.32,4.32,0,0,0-4.33,4.32v13.6a4.33,4.33,0,0,0,4.33,4.33h13.6a4.32,4.32,0,0,1,4.32,4.33v13.35a4.33,4.33,0,0,0,4.33,4.33h13.6a4.33,4.33,0,0,0,4.33-4.33V887.07a4.32,4.32,0,0,1,4.32-4.33h13.6a4.33,4.33,0,0,0,4.33-4.33v-13.6A4.32,4.32,0,0,0,3707.16,860.49Z" transform="translate(-717.39 -359.5)"/><path class="cls-49" d="M1243.15,1540.94l-21.39-11.79a7.76,7.76,0,0,1-3-10.56l11.57-21a7.75,7.75,0,0,0-3-10.55l-21.39-11.8a7.78,7.78,0,0,0-10.56,3.06l-11.57,21a7.78,7.78,0,0,1-10.56,3l-21.39-11.79a7.75,7.75,0,0,0-10.55,3l-11.8,21.39a7.78,7.78,0,0,0,3.06,10.56l21.38,11.79a7.77,7.77,0,0,1,3.06,10.55l-11.58,21a7.78,7.78,0,0,0,3.05,10.56l21.39,11.79a7.77,7.77,0,0,0,10.56-3l11.58-21a7.75,7.75,0,0,1,10.55-3l21.39,11.79a7.78,7.78,0,0,0,10.56-3.06l11.79-21.38A7.77,7.77,0,0,0,1243.15,1540.94Z" transform="translate(-717.39 -359.5)"/><path class="cls-5" d="M2284.9,2185.13l-39.7-.33s-104.59,42-119.12,71-55,113.61-43.84,129.12,22.05-5.73,29.07-27.56,30.6-63.13,30.6-63.13-10,35.78-12.13,56.88-1.47,66.62,6.13,71.43,17.58,1.84,19.17-27.47,2.8-42.8,8.47-53.19,12.74-27.88,12.74-27.88-5.81,35.63-7,45.53,8.61,55.6,15.59,59.35,15.78-4,12.93-20.78-4.86-34.67-3.22-39.17,16-38.41,16-38.41-.81,27.08,0,34.88,11.7,44.61,17,42.38c11.59-4.85,8-21.67,3.37-40.28-1.74-7.27,14.92-29.75,21.21-42.28s33.1-18.15,57.23-33.68c35.08-22.57,35.09-42.23,35.09-42.23l-32.82-48.16A65.51,65.51,0,0,0,2284.9,2185.13Z" transform="translate(-717.39 -359.5)"/><g class="cls-50"><path class="cls-5" d="M2206.14,2336.78l4.51-16.26s-10.22,20.39-14.27,27.61-6.66,11.49-3.94,23.78,5.71,44.21-1.77,51.5c11.2-6.62,17-14.25,15.88-22.22s-7.21-27.32-7.61-29.79-1.77-2.74.57-11.07S2206.14,2336.78,2206.14,2336.78Z" transform="translate(-717.39 -359.5)"/><path class="cls-5" d="M2151.19,2377.83c.2,13.59-1.12,44.17-9.62,48.39,9.84-2.53,19.11-18.87,19.11-18.87l-1.25-28.61s3.39-26.69,5.08-30,8-18,8-18l3.75-16.78s-12.94,21.87-16.58,27.42S2151,2364.24,2151.19,2377.83Z" transform="translate(-717.39 -359.5)"/><path class="cls-5" d="M2111.25,2347.48c-4.06,12.82-18.59,42.7-25.15,44.91,6.07,3.36,23.64-11.39,23.44-11.73s3.28-14.92,5.22-21.35,15.82-34.11,16.57-36.67,7.49-20.59,7.49-20.59l3.09-7.82s-8.31,11.77-12,18S2115.32,2334.66,2111.25,2347.48Z" transform="translate(-717.39 -359.5)"/></g><path class="cls-16" d="M2814.19,1554.2s34.42,23.94,130.85,23.94,171.66-27.36,171.66-27.36v-48.56L2814.19,1505Z" transform="translate(-717.39 -359.5)"/><path class="cls-8" d="M2770.53,1194c-8.13,7.49-25.11,25.37-39.06,54.75-12.85,27.08-19.44,47.15-22.37,57.36a10,10,0,0,0,4.6,11.38l22.24,12.84,68.59-129.07-23.65-9.2A10,10,0,0,0,2770.53,1194Z" transform="translate(-717.39 -359.5)"/><path class="cls-9" d="M2974.67,1097.35c99.26-5.28,191.5,65.66,233.44,192.41s12.77,195.14-88.45,223.4S2874.37,1546,2785,1511.34s-88.46-85.94-68.39-161.63S2803.24,1106.47,2974.67,1097.35Z" transform="translate(-717.39 -359.5)"/><g class="cls-51"><path class="cls-52" d="M3187.14,1205.41s22.57,110.11,8.2,181.92-171,91-263.3,86.17-209.95-15-227.05-131.31c-41,104.64-62.24,165.5,70.44,193.54s452.74,15.73,458.21-19.83,63.61-60.18,34.88-126.52S3187.14,1205.41,3187.14,1205.41Z" transform="translate(-717.39 -359.5)"/><path class="cls-8" d="M3038.73,1288.85c-39-6.84-73.39,15.32-173.71,7.52-44-3.42-61.78-12.08-91-19.38s-57.9,116.26-50.61,149.55,71.13,62.69,133.36,68.16,98.49.68,149.09-4.1,55.4-13.68,57.45-75.92S3077.71,1295.68,3038.73,1288.85Z" transform="translate(-717.39 -359.5)"/><path class="cls-16" d="M3039.84,1282.53c-17.67-3.1-34.14-.64-55,2.48-27.88,4.18-62.58,9.37-119.33,5-31.59-2.45-49.28-7.64-68-13.13-6.88-2-14-4.09-21.9-6.07-4.5-1.13-11.47-.89-19.19,6.6-16.61,16.13-27.76,56.78-31.78,73.52-7.74,32.17-10.67,62.4-7.46,77,3.86,17.65,21.44,35,49.5,48.89,25.64,12.69,58.29,21.54,89.56,24.29,20,1.76,37.32,2.48,53.27,2.48,29.21,0,53.88-2.4,82.43-5.18,4.74-.46,9.58-.94,14.56-1.41,26.17-2.47,42.13-6.23,51.5-19,6.86-9.35,10.37-21.18,11.75-63.09.37-11.14,1.07-22.12,1.75-32.73,1.53-24,3-46.7-.15-64C3067.57,1297.25,3057.26,1285.58,3039.84,1282.53Zm18.86,98.81c-.68,10.71-1.39,21.79-1.76,33.13-1,30-2.7,47-9.28,55.92-5.78,7.88-16.47,11.37-42.36,13.82l-14.59,1.4c-43.48,4.24-77.83,7.58-133.33,2.7-29.75-2.62-60.73-11-85-23s-39.68-26.57-42.66-40.14c-2.73-12.47.31-41.78,7.41-71.27,7.71-32.1,18.54-57.89,28.24-67.32,2.37-2.3,4.46-3.46,6.23-3.46a3.49,3.49,0,0,1,.91.11c7.66,1.91,14.64,4,21.4,5.94,19.39,5.68,37.7,11,70.61,13.61,58.21,4.52,95.21-1,122.23-5.07,20.47-3.06,35.26-5.27,50.87-2.53,12,2.1,18.28,9.66,21.11,25.3S3060.18,1358.13,3058.7,1381.34Z" transform="translate(-717.39 -359.5)"/><ellipse class="cls-9" cx="2250.75" cy="1008.83" rx="43.31" ry="49.7"/><path class="cls-52" d="M3035.65,1075.25c-40.28.43-75.58,7.56-104.92,21.19-23.87,11.08-43.84,26.44-59.35,45.65-26.56,32.9-30.73,65.63-30.89,67a11.14,11.14,0,0,0,9.72,12.38,10.62,10.62,0,0,0,1.37.09,11.19,11.19,0,0,0,11.07-9.78c0-.28,3.85-28.62,26.84-56.58,30.85-37.53,80.11-56.93,146.4-57.64a11.16,11.16,0,0,0-.24-22.32Z" transform="translate(-717.39 -359.5)"/><path class="cls-52" d="M3090.36,1075.25c-40.28.43-75.58,7.56-104.91,21.19-23.88,11.08-43.85,26.44-59.35,45.65-26.57,32.9-30.73,65.63-30.9,67a11.14,11.14,0,0,0,9.72,12.38,10.66,10.66,0,0,0,1.38.09,11.18,11.18,0,0,0,11.06-9.78c0-.28,3.86-28.62,26.84-56.58,30.86-37.53,80.11-56.93,146.4-57.64a11.16,11.16,0,0,0-.24-22.32Z" transform="translate(-717.39 -359.5)"/><path class="cls-52" d="M3145.19,1075.25h-.12c-40.28.43-75.58,7.56-104.91,21.19-23.88,11.08-43.84,26.44-59.35,45.65-26.56,32.9-30.73,65.63-30.9,67a11.14,11.14,0,0,0,9.72,12.38,10.78,10.78,0,0,0,1.38.09,11.18,11.18,0,0,0,11.06-9.78c0-.28,3.86-28.62,26.84-56.58,30.86-37.53,80.11-56.93,146.4-57.64a11.16,11.16,0,0,0-.12-22.32Z" transform="translate(-717.39 -359.5)"/><path class="cls-9" d="M2898.41,1420.72c-40.18,22.85-60-5.72-60.86-7a6.69,6.69,0,0,0-11.19,7.35,53,53,0,0,0,20.15,16.85A51.52,51.52,0,0,0,2869,1443c10.07,0,22.14-2.75,36-10.63a6.7,6.7,0,1,0-6.62-11.64Z" transform="translate(-717.39 -359.5)"/><path class="cls-9" d="M2799,1329.61c-19.73-2-34.3,10.77-34.91,11.31a5.36,5.36,0,0,0,7.12,8c.12-.11,11.62-10.17,26.73-8.66,10.79,1.09,20.94,7.87,30.17,20.18a5.36,5.36,0,1,0,8.57-6.43C2825.61,1339.22,2812.93,1331,2799,1329.61Z" transform="translate(-717.39 -359.5)"/></g><ellipse class="cls-16" cx="2427.34" cy="905.64" rx="64.29" ry="77.51"/><ellipse class="cls-8" cx="2447.41" cy="905.64" rx="64.29" ry="77.51"/><ellipse class="cls-9" cx="2447.41" cy="905.64" rx="36.32" ry="43.79"/><ellipse class="cls-16" cx="2438.29" cy="907.46" rx="25.08" ry="30.23"/><path class="cls-53" d="M1519.71,1221.18c-31.59-1-61.29-2.06-91-2.69-16.58-.34-33.39-1.56-49.72.52-45.06,5.72-76,30.57-93.1,72.6-9.08,22.31-19.71,29.28-40.94,27.41-16.49-1.46-31-13.65-30.43-30,2.28-65.24,1-131.15,10.36-195.47,11.81-81.34,96.59-143.89,179.43-144.7,94.55-.93,177.24,69.33,189.09,163.75,2,16.33,1.22,33.1.87,49.64-.93,43.42-2,86.84-3.69,130.23-1,25.63-17.86,39.13-42.81,35.84-18.14-2.39-30.39-17.1-30.1-37.16C1518,1268.76,1519,1246.37,1519.71,1221.18Zm1.25-72.32c8.6-64.11-37.15-120-102.65-128-81-9.95-151,74.77-125.49,153.79,41-26.39,86.24-31.89,133.61-28.81C1457.57,1147.8,1488.84,1147.89,1521,1148.86Z" transform="translate(-717.39 -359.5)"/><path class="cls-2" d="M2993.18,2052.13c-15.61-.11-30.28-.3-44.95-.26-8.19,0-16.5-.38-24.54.84-22.18,3.35-37.16,16-45.11,36.93-4.21,11.12-9.38,14.68-19.88,14-8.16-.53-15.47-6.37-15.38-14.45.36-32.23-1-64.75,2.83-96.61,4.87-40.29,46-72.16,86.87-73.53,46.66-1.57,88.3,32.14,95.26,78.61,1.21,8,1,16.32,1,24.49.05,21.45.06,42.89-.29,64.33-.2,12.67-8.35,19.52-20.71,18.2-9-1-15.2-8.09-15.3-18C2992.89,2075.63,2993.1,2064.57,2993.18,2052.13Zm-.23-35.72c3.49-31.74-19.75-58.8-52.18-62-40.1-4-73.67,38.68-60.13,77.39,19.91-13.51,42.19-16.75,65.61-15.79C2961.65,2016.64,2977.08,2016.31,2993,2016.41Z" transform="translate(-717.39 -359.5)"/><path class="cls-9" d="M1800,1035.41c-.31,64.39-52.85,117-116.47,116.71-63.38-.32-116.64-53.52-117.06-116.91s54.59-117.94,118-117.2C1748.52,918.76,1800.31,971.37,1800,1035.41Z" transform="translate(-717.39 -359.5)"/><path class="cls-9" d="M1363.93,1044.29c-32.13,0-63.39.87-94.58-.2-47.44-1.63-92.51,5.24-132.67,32.86-27.94-78.21,39.48-165,120.75-157.53C1323.15,925.47,1370.58,980,1363.93,1044.29Z" transform="translate(-717.39 -359.5)"/></svg>