<?xml version="1.0" encoding="UTF-8"?> <svg xmlns="http://www.w3.org/2000/svg" xmlns:xlink="http://www.w3.org/1999/xlink" width="838" height="1239" viewBox="0 0 838 1239"><defs><filter id="s6wdaray0a" width="95.3%" height="108.7%" x="2.4%" y="-3.2%"><feMorphology in="SourceAlpha" operator="dilate" radius=".25" result="shadowSpreadOuter1"></feMorphology><feOffset dy="2" in="shadowSpreadOuter1" result="shadowOffsetOuter1"></feOffset><feGaussianBlur in="shadowOffsetOuter1" result="shadowBlurOuter1" stdDeviation="2"></feGaussianBlur><feComposite in="shadowBlurOuter1" in2="SourceAlpha" operator="out" result="shadowBlurOuter1"></feComposite><feColorMatrix in="shadowBlurOuter1" values="0 0 0 0 0 0 0 0 0 0 0 0 0 0 0 0 0 0 0.5 0"></feColorMatrix></filter><filter id="2y7ieq4xpd" width="95.3%" height="108.7%" x="2.4%" y="-3.2%"><feMorphology in="SourceAlpha" operator="dilate" radius=".25" result="shadowSpreadOuter1"></feMorphology><feOffset dy="2" in="shadowSpreadOuter1" result="shadowOffsetOuter1"></feOffset><feGaussianBlur in="shadowOffsetOuter1" result="shadowBlurOuter1" stdDeviation="2"></feGaussianBlur><feComposite in="shadowBlurOuter1" in2="SourceAlpha" operator="out" result="shadowBlurOuter1"></feComposite><feColorMatrix in="shadowBlurOuter1" values="0 0 0 0 0 0 0 0 0 0 0 0 0 0 0 0 0 0 0.5 0"></feColorMatrix></filter><filter id="zlipqpu0pf" width="95.3%" height="108.7%" x="2.4%" y="-3.2%"><feMorphology in="SourceAlpha" operator="dilate" radius=".25" result="shadowSpreadOuter1"></feMorphology><feOffset dy="2" in="shadowSpreadOuter1" result="shadowOffsetOuter1"></feOffset><feGaussianBlur in="shadowOffsetOuter1" result="shadowBlurOuter1" stdDeviation="2"></feGaussianBlur><feComposite in="shadowBlurOuter1" in2="SourceAlpha" operator="out" result="shadowBlurOuter1"></feComposite><feColorMatrix in="shadowBlurOuter1" values="0 0 0 0 0 0 0 0 0 0 0 0 0 0 0 0 0 0 0.5 0"></feColorMatrix></filter><filter id="4h6kn9qxch" width="95.3%" height="108.7%" x="2.4%" y="-3.2%"><feMorphology in="SourceAlpha" operator="dilate" radius=".25" result="shadowSpreadOuter1"></feMorphology><feOffset dy="2" in="shadowSpreadOuter1" result="shadowOffsetOuter1"></feOffset><feGaussianBlur in="shadowOffsetOuter1" result="shadowBlurOuter1" stdDeviation="2"></feGaussianBlur><feComposite in="shadowBlurOuter1" in2="SourceAlpha" operator="out" result="shadowBlurOuter1"></feComposite><feColorMatrix in="shadowBlurOuter1" values="0 0 0 0 0 0 0 0 0 0 0 0 0 0 0 0 0 0 0.5 0"></feColorMatrix></filter><filter id="bv8ybmy54j" width="95.3%" height="108.7%" x="2.4%" y="-3.2%"><feMorphology in="SourceAlpha" operator="dilate" radius=".25" result="shadowSpreadOuter1"></feMorphology><feOffset dy="2" in="shadowSpreadOuter1" result="shadowOffsetOuter1"></feOffset><feGaussianBlur in="shadowOffsetOuter1" result="shadowBlurOuter1" stdDeviation="2"></feGaussianBlur><feComposite in="shadowBlurOuter1" in2="SourceAlpha" operator="out" result="shadowBlurOuter1"></feComposite><feColorMatrix in="shadowBlurOuter1" values="0 0 0 0 0 0 0 0 0 0 0 0 0 0 0 0 0 0 0.5 0"></feColorMatrix></filter><filter id="9bt41kgg7l" width="95.3%" height="108.7%" x="2.4%" y="-3.2%"><feMorphology in="SourceAlpha" operator="dilate" radius=".25" result="shadowSpreadOuter1"></feMorphology><feOffset dy="2" in="shadowSpreadOuter1" result="shadowOffsetOuter1"></feOffset><feGaussianBlur in="shadowOffsetOuter1" result="shadowBlurOuter1" stdDeviation="2"></feGaussianBlur><feComposite in="shadowBlurOuter1" in2="SourceAlpha" operator="out" result="shadowBlurOuter1"></feComposite><feColorMatrix in="shadowBlurOuter1" values="0 0 0 0 0 0 0 0 0 0 0 0 0 0 0 0 0 0 0.5 0"></feColorMatrix></filter><filter id="3l1cbgeh3n" width="95.3%" height="108.7%" x="2.4%" y="-3.2%"><feMorphology in="SourceAlpha" operator="dilate" radius=".25" result="shadowSpreadOuter1"></feMorphology><feOffset dy="2" in="shadowSpreadOuter1" result="shadowOffsetOuter1"></feOffset><feGaussianBlur in="shadowOffsetOuter1" result="shadowBlurOuter1" stdDeviation="2"></feGaussianBlur><feComposite in="shadowBlurOuter1" in2="SourceAlpha" operator="out" result="shadowBlurOuter1"></feComposite><feColorMatrix in="shadowBlurOuter1" values="0 0 0 0 0 0 0 0 0 0 0 0 0 0 0 0 0 0 0.5 0"></feColorMatrix></filter><filter id="g6dexru7yp" width="95.3%" height="108.7%" x="2.4%" y="-3.2%"><feMorphology in="SourceAlpha" operator="dilate" radius=".25" result="shadowSpreadOuter1"></feMorphology><feOffset dy="2" in="shadowSpreadOuter1" result="shadowOffsetOuter1"></feOffset><feGaussianBlur in="shadowOffsetOuter1" result="shadowBlurOuter1" stdDeviation="2"></feGaussianBlur><feComposite in="shadowBlurOuter1" in2="SourceAlpha" operator="out" result="shadowBlurOuter1"></feComposite><feColorMatrix in="shadowBlurOuter1" values="0 0 0 0 0 0 0 0 0 0 0 0 0 0 0 0 0 0 0.5 0"></feColorMatrix></filter><filter id="m2omuadi0r" width="95.3%" height="108.7%" x="2.4%" y="-3.2%"><feMorphology in="SourceAlpha" operator="dilate" radius=".25" result="shadowSpreadOuter1"></feMorphology><feOffset dy="2" in="shadowSpreadOuter1" result="shadowOffsetOuter1"></feOffset><feGaussianBlur in="shadowOffsetOuter1" result="shadowBlurOuter1" stdDeviation="2"></feGaussianBlur><feComposite in="shadowBlurOuter1" in2="SourceAlpha" operator="out" result="shadowBlurOuter1"></feComposite><feColorMatrix in="shadowBlurOuter1" values="0 0 0 0 0 0 0 0 0 0 0 0 0 0 0 0 0 0 0.5 0"></feColorMatrix></filter><filter id="415dzouyit" width="95.3%" height="108.7%" x="2.4%" y="-3.2%"><feMorphology in="SourceAlpha" operator="dilate" radius=".25" result="shadowSpreadOuter1"></feMorphology><feOffset dy="2" in="shadowSpreadOuter1" result="shadowOffsetOuter1"></feOffset><feGaussianBlur in="shadowOffsetOuter1" result="shadowBlurOuter1" stdDeviation="2"></feGaussianBlur><feComposite in="shadowBlurOuter1" in2="SourceAlpha" operator="out" result="shadowBlurOuter1"></feComposite><feColorMatrix in="shadowBlurOuter1" values="0 0 0 0 0 0 0 0 0 0 0 0 0 0 0 0 0 0 0.5 0"></feColorMatrix></filter><filter id="a4b0516rkv" width="95.3%" height="108.7%" x="2.4%" y="-3.2%"><feMorphology in="SourceAlpha" operator="dilate" radius=".25" result="shadowSpreadOuter1"></feMorphology><feOffset dy="2" in="shadowSpreadOuter1" result="shadowOffsetOuter1"></feOffset><feGaussianBlur in="shadowOffsetOuter1" result="shadowBlurOuter1" stdDeviation="2"></feGaussianBlur><feComposite in="shadowBlurOuter1" in2="SourceAlpha" operator="out" result="shadowBlurOuter1"></feComposite><feColorMatrix in="shadowBlurOuter1" values="0 0 0 0 0 0 0 0 0 0 0 0 0 0 0 0 0 0 0.5 0"></feColorMatrix></filter><path id="f1oys7pdbb" d="M384.5 262L456.813 303.75 456.813 387.25 384.5 429 312.187 387.25 312.187 303.75z"></path><path id="e0d8swp5he" d="M249.5 186L321.813 227.75 321.813 311.25 249.5 353 177.187 311.25 177.187 227.75z"></path><path id="u4eicxy2jg" d="M517.5 340L589.813 381.75 589.813 465.25 517.5 507 445.187 465.25 445.187 381.75z"></path><path id="acptif6fyi" d="M385.063 417L457.376 458.75 457.376 542.25 385.063 584 312.75 542.25 312.75 458.75z"></path><path id="zy7hr9x0ek" d="M383.5 730L455.813 771.75 455.813 855.25 383.5 897 311.187 855.25 311.187 771.75z"></path><path id="x9d4vw3oxm" d="M249.063 807.563L321.376 849.313 321.376 932.813 249.063 974.563 176.75 932.813 176.75 849.313z"></path><path id="8gacqqyk3o" d="M517.5 962L589.813 1003.75 589.813 1087.25 517.5 1129 445.187 1087.25 445.187 1003.75z"></path><path id="skv9mnzauq" d="M383.5 884L455.813 925.75 455.813 1009.25 383.5 1051 311.187 1009.25 311.187 925.75z"></path><path id="m03ylx3ycs" d="M383.5 1039.563L455.813 1081.313 455.813 1164.813 383.5 1206.563 311.187 1164.813 311.187 1081.313z"></path><path id="9tho27o95u" d="M517.063 1117.563L589.376 1159.313 589.376 1242.813 517.063 1284.563 444.75 1242.813 444.75 1159.313z"></path><path id="n9brh3jrgw" d="M517.5 652L589.813 693.75 589.813 777.25 517.5 819 445.187 777.25 445.187 693.75z"></path><linearGradient id="p1ot8kvxdc" x1="49.179%" x2="49.179%" y1="0%" y2="100%"><stop offset="0%" stop-color="#055BB0"></stop><stop offset="100%" stop-color="#54A3FF"></stop></linearGradient></defs><g fill="none" fill-rule="evenodd"><g><g><path fill="#FFF" stroke="#D8D8D8" stroke-width=".5" d="M651.5 420L723.813 461.75 723.813 545.25 651.5 587 579.187 545.25 579.187 461.75z" transform="translate(-264 -4269) translate(233 4228) scale(-1 1) rotate(30 0 -1927.931)"></path><path fill="#FFF" stroke="#D8D8D8" stroke-width=".5" d="M517.5 497L589.813 538.75 589.813 622.25 517.5 664 445.187 622.25 445.187 538.75z" transform="translate(-264 -4269) translate(233 4228) scale(-1 1) rotate(30 0 -1350.836)"></path><path fill="#FFF" d="M785.5 497L857.813 538.75 857.813 622.25 785.5 664 713.187 622.25 713.187 538.75z" transform="translate(-264 -4269) translate(233 4228) scale(-1 1) rotate(30 0 -2351.026)"></path><path fill="#FFF" d="M115.5 110L187.813 151.75 187.813 235.25 115.5 277 43.187 235.25 43.187 151.75z" transform="translate(-264 -4269) translate(233 4228) scale(-1 1) rotate(30 0 -237.552)"></path><path fill="#FFF" stroke="#D8D8D8" stroke-width=".5" d="M248.5 31L320.813 72.75 320.813 156.25 248.5 198 176.187 156.25 176.187 72.75z" transform="translate(-264 -4269) translate(233 4228) scale(-1 1) rotate(30 0 -812.915)"></path><path fill="#FFF" stroke="#D8D8D8" stroke-width=".5" d="M517.5 808L589.813 849.75 589.813 933.25 517.5 975 445.187 933.25 445.187 849.75z" transform="translate(-264 -4269) translate(233 4228) scale(-1 1) rotate(30 0 -1039.836)"></path><path fill="#FFF" stroke="#D8D8D8" stroke-width=".5" d="M650.5 1040L722.813 1081.75 722.813 1165.25 650.5 1207 578.187 1165.25 578.187 1081.75z" transform="translate(-264 -4269) translate(233 4228) scale(-1 1) rotate(30 0 -1304.2)"></path><path fill="#FFF" d="M783.5 1118L855.813 1159.75 855.813 1243.25 783.5 1285 711.187 1243.25 711.187 1159.75z" transform="translate(-264 -4269) translate(233 4228) scale(-1 1) rotate(30 0 -1722.562)"></path><path fill="#FFF" d="M249.5 962L321.813 1003.75 321.813 1087.25 249.5 1129 177.187 1087.25 177.187 1003.75z" transform="translate(-264 -4269) translate(233 4228) scale(-1 1) rotate(30 0 114.353)"></path><path fill="#FFF" d="M114.5 884L186.813 925.75 186.813 1009.25 114.5 1051 42.187 1009.25 42.187 925.75z" transform="translate(-264 -4269) translate(233 4228) scale(-1 1) rotate(30 0 540.18)"></path></g></g></g></svg> 